<svg width="20" height="20" viewBox="0 0 20 20" fill="none" xmlns="http://www.w3.org/2000/svg">
<path fill-rule="evenodd" clip-rule="evenodd" d="M2.84267 4H17.1564C17.6204 4 18 4.427 18 4.949V5.051C18 5.573 17.6204 6 17.1564 6H2.84267C2.37867 6 2 5.573 2 5.051V4.949C2 4.427 2.37867 4 2.84267 4ZM17.1564 9.00001H2.84267C2.37867 9.00001 2 9.42701 2 9.94901V10.051C2 10.573 2.37867 11 2.84267 11H17.1564C17.6204 11 18 10.573 18 10.051V9.94901C18 9.42701 17.6204 9.00001 17.1564 9.00001ZM17.1564 14H2.84267C2.37867 14 2 14.427 2 14.949V15.051C2 15.573 2.37867 16 2.84267 16H17.1564C17.6204 16 18 15.573 18 15.051V14.949C18 14.427 17.6204 14 17.1564 14Z" fill="#48464D"/>
</svg>
