<svg width="20" height="20" viewBox="0 0 20 20" fill="none" xmlns="http://www.w3.org/2000/svg">
<path fill-rule="evenodd" clip-rule="evenodd" d="M5.71397 12.1592H9.42797C9.60111 12.1592 9.76997 12.2143 9.91311 12.3147L14.2854 15.4241V4.57703L9.91311 7.68634C9.76997 7.78678 9.60111 7.84189 9.42797 7.84189H5.71397V12.1592ZM15.1427 18C14.973 18 14.8033 17.9484 14.6584 17.8444L9.16242 13.9369H4.85699C4.38385 13.9369 3.99985 13.5396 3.99985 13.048V6.95298C3.99985 6.46142 4.38385 6.06409 4.85699 6.06409H9.16242L14.6584 2.15568C14.9198 1.96901 15.2601 1.94857 15.5421 2.10323C15.8233 2.25612 15.9998 2.55923 15.9998 2.88901V17.1111C15.9998 17.4409 15.8233 17.744 15.5421 17.8978C15.417 17.9662 15.2798 18 15.1427 18Z" fill="#48464D"/>
</svg>
