<svg width="20" height="20" viewBox="0 0 20 20" fill="none" xmlns="http://www.w3.org/2000/svg">
<path fill-rule="evenodd" clip-rule="evenodd" d="M16.6581 15.0085L6.98767 5.33805L13.5011 5.33338C14.1451 5.33338 14.6666 4.80955 14.6666 4.16555C14.6666 3.52156 14.144 3.00006 13.5 3.00006H13.4988L4.22386 3.00706C3.58219 3.00823 3.06303 3.52622 3.05836 4.16672L3.00003 13.493C2.99536 14.137 3.51453 14.6632 4.15969 14.6667H4.16669C4.80835 14.6667 5.32868 14.1487 5.33335 13.507L5.37418 7.02387L15.0085 16.6581C15.236 16.8856 15.5346 17 15.8333 17C16.1319 17 16.4306 16.8856 16.6581 16.6581C17.1143 16.202 17.1143 15.4646 16.6581 15.0085Z" fill="#48464D"/>
</svg>
