<svg width="20" height="20" viewBox="0 0 20 20" fill="none" xmlns="http://www.w3.org/2000/svg">
<path fill-rule="evenodd" clip-rule="evenodd" d="M10.0002 8.22217C9.01885 8.22217 8.22239 9.01863 8.22239 9.99998C8.22239 10.9813 9.01885 11.7778 10.0002 11.7778C10.9816 11.7778 11.778 10.9813 11.778 9.99998C11.778 9.01863 10.9816 8.22217 10.0002 8.22217ZM16.2223 8.22217C15.2409 8.22217 14.4445 9.01863 14.4445 9.99998C14.4445 10.9813 15.2409 11.7778 16.2223 11.7778C17.2036 11.7778 18.0001 10.9813 18.0001 9.99998C18.0001 9.01863 17.2036 8.22217 16.2223 8.22217ZM1.99994 9.99999C1.99994 9.01864 2.7964 8.22217 3.77776 8.22217C4.75911 8.22217 5.55557 9.01864 5.55557 9.99999C5.55557 10.9813 4.75911 11.7778 3.77776 11.7778C2.7964 11.7778 1.99994 10.9813 1.99994 9.99999Z" fill="#48464D"/>
</svg>
