<svg width="20" height="20" viewBox="0 0 20 20" fill="none" xmlns="http://www.w3.org/2000/svg">
<path fill-rule="evenodd" clip-rule="evenodd" d="M9.99982 5.89189C11.074 5.89189 11.9458 5.02011 11.9458 3.94595C11.9458 2.87178 11.074 2 9.99982 2C8.92566 2 8.05388 2.87178 8.05388 3.94595C8.05388 5.02011 8.92566 5.89189 9.99982 5.89189ZM9.99982 8.054C8.92566 8.054 8.05388 8.92579 8.05388 9.99995C8.05388 11.0741 8.92566 11.9459 9.99982 11.9459C11.074 11.9459 11.9458 11.0741 11.9458 9.99995C11.9458 8.92579 11.074 8.054 9.99982 8.054ZM8.05388 16.054C8.05388 14.9799 8.92566 14.1081 9.99982 14.1081C11.074 14.1081 11.9458 14.9799 11.9458 16.054C11.9458 17.1282 11.074 18 9.99982 18C8.92566 18 8.05388 17.1282 8.05388 16.054Z" fill="#48464D"/>
</svg>
