<svg width="20" height="20" viewBox="0 0 20 20" fill="none" xmlns="http://www.w3.org/2000/svg">
<path fill-rule="evenodd" clip-rule="evenodd" d="M13.5178 8.83275L11.1594 6.47134L12.8641 4.76358L15.2216 7.12412L13.5178 8.83275ZM7.44546 14.919L4.84033 15.1564L5.07135 12.5663L9.98672 7.64459L12.346 10.0069L7.44546 14.919ZM16.4798 5.90529L16.479 5.90441L14.083 3.50532C13.4345 2.85779 12.3206 2.82712 11.7062 3.44486L3.83394 11.3273C3.54867 11.6121 3.3719 11.9906 3.33514 12.3911L3.00349 16.0449C2.98073 16.3034 3.07262 16.5593 3.25639 16.7433C3.42178 16.9089 3.64493 17 3.87507 17C3.9022 17 3.92845 16.9991 3.95471 16.9965L7.60383 16.6644C8.00462 16.6276 8.38178 16.4515 8.66618 16.1667L16.5394 8.28335C17.1764 7.64371 17.1493 6.57647 16.4798 5.90529Z" fill="#48464D"/>
</svg>
