<svg width="20" height="20" viewBox="0 0 20 20" fill="none" xmlns="http://www.w3.org/2000/svg">
<path d="M17.0002 9.99991C17.0002 13.8659 13.8658 17 10.0001 17C6.13397 17 3 13.8659 3 9.99991C3 6.13407 6.13397 3 10.0001 3C13.8658 3 17.0002 6.13407 17.0002 9.99991Z" fill="white"/>
<path d="M13.2857 9.512C12.1723 8.75529 10.7468 9.06343 9.99725 10.2012C9.37381 11.1521 8.43021 11.2705 8.06673 11.2705C6.87455 11.2705 6.06113 10.4325 5.81936 9.5658C5.81936 9.5658 5.80754 9.52192 5.80444 9.512C5.7094 9.14973 5.68537 8.97767 5.68537 8.59327C5.68537 6.52185 7.81232 4.21439 10.8731 4.21439C14.0088 4.21439 15.8034 6.6014 16.2671 7.92841C16.2578 7.90346 16.2503 7.88126 16.2427 7.85786C15.3531 5.26277 12.8926 3.39752 9.99415 3.39752C6.34979 3.39752 3.39349 6.35226 3.39349 9.99973C3.39349 13.2591 5.74436 16.0489 9.00596 16.0489C11.606 16.0489 13.3541 14.5912 14.1547 12.5812C14.595 11.4814 14.2841 10.1901 13.2857 9.512Z" fill="#003764"/>
<path d="M16.3075 8.05657C15.9208 6.76199 14.1146 4.21439 10.8731 4.21439C7.81233 4.21439 5.68538 6.52185 5.68538 8.59327C5.68538 8.97767 5.70941 9.14973 5.80445 9.512C5.76467 9.35334 5.74436 9.19542 5.74436 9.04095C5.74436 6.88305 7.90444 5.38828 10.1252 5.38828C13.1323 5.38828 15.5694 7.82544 15.5694 10.8313C15.5694 13.1875 14.2131 15.2284 12.2434 16.2081V16.2099C14.7835 15.29 16.5973 12.8568 16.5973 9.99973C16.5973 9.32349 16.5066 8.72708 16.3075 8.05657Z" fill="#E4032E"/>
</svg>
