<svg width="20" height="20" viewBox="0 0 20 20" fill="none" xmlns="http://www.w3.org/2000/svg">
<path d="M7.2 12.1H12.8M12.1 7.9H12.107M7.9 7.9H7.907M17 10C17 13.866 13.866 17 10 17C6.13403 17 3 13.866 3 10C3 6.13403 6.13403 3 10 3C13.866 3 17 6.13403 17 10ZM12.45 7.9C12.45 8.09333 12.2933 8.25 12.1 8.25C11.9067 8.25 11.75 8.09333 11.75 7.9C11.75 7.70667 11.9067 7.55 12.1 7.55C12.2933 7.55 12.45 7.70667 12.45 7.9ZM8.25 7.9C8.25 8.09333 8.09333 8.25 7.9 8.25C7.70667 8.25 7.55 8.09333 7.55 7.9C7.55 7.70667 7.70667 7.55 7.9 7.55C8.09333 7.55 8.25 7.70667 8.25 7.9Z" stroke="#00A864" stroke-width="1.5" stroke-linecap="round" stroke-linejoin="round"/>
</svg>
