<svg width="20" height="20" viewBox="0 0 20 20" fill="none" xmlns="http://www.w3.org/2000/svg">
<path d="M10.4961 2.0127C10.8644 2.07263 11.1744 2.3356 11.289 2.7002L11.29 2.70117C11.2902 2.70232 11.2902 2.70466 11.291 2.70703C11.2927 2.71241 11.2961 2.72107 11.2998 2.73242C11.3074 2.75598 11.3194 2.79238 11.3349 2.83887C11.3663 2.93268 11.4128 3.07061 11.4736 3.23926C11.5958 3.57807 11.7727 4.03972 11.9902 4.53223C12.2088 5.02715 12.4621 5.53826 12.7353 5.98242C12.922 6.28588 13.1035 6.52931 13.2685 6.71191L15.7588 4.22461C16.0428 3.9408 16.5031 3.9408 16.7871 4.22461C17.0709 4.50843 17.071 4.9682 16.7871 5.25195L14.3359 7.7002C15.4482 8.86344 16.0625 10.2334 16.0625 11.7207C16.0624 13.3354 15.4208 14.8837 14.2783 16.0254C13.1358 17.167 11.5869 17.8076 9.97165 17.8076C8.43649 17.8076 6.96221 17.2278 5.83884 16.1904L4.24118 17.7881C3.95716 18.0718 3.49685 18.0719 3.21286 17.7881C2.92919 17.5043 2.92912 17.0445 3.21286 16.7607L4.89352 15.0811C4.2381 14.0919 3.8809 12.925 3.88083 11.7207C3.88085 9.89641 4.8044 8.24871 6.43845 6.94238C6.67191 6.75565 6.94132 6.4257 7.22263 5.96973C7.49672 5.52538 7.74877 5.01658 7.96481 4.52441C8.17978 4.03466 8.35332 3.57619 8.47263 3.24023C8.53204 3.07292 8.57793 2.93658 8.60837 2.84375C8.6235 2.79759 8.63421 2.76155 8.64157 2.73828C8.64517 2.7269 8.64868 2.7182 8.65036 2.71289C8.65096 2.71097 8.6511 2.70906 8.65134 2.70801L8.65231 2.70703L8.71188 2.55566C8.87844 2.21944 9.22396 2 9.60837 2H10.3349L10.4961 2.0127ZM7.25485 14.7764C8.00133 15.4386 8.96726 15.8076 9.97165 15.8076C11.0572 15.8076 12.098 15.3769 12.8652 14.6104C13.632 13.8438 14.0624 12.8046 14.0625 11.7207C14.0625 10.8503 13.7182 9.95967 12.9209 9.11426L7.25485 14.7764ZM9.79684 5.32812C9.55849 5.87114 9.26403 6.47055 8.92477 7.02051C8.59273 7.55867 8.18087 8.11037 7.68747 8.50488C6.41265 9.52403 5.88085 10.6382 5.88083 11.7207C5.88089 12.3902 6.04524 13.0424 6.35153 13.624L11.8515 8.12793C11.539 7.79607 11.2655 7.40944 11.0322 7.03027C10.6954 6.48276 10.4012 5.88344 10.1611 5.33984C10.0956 5.19145 10.0328 5.04586 9.97458 4.90527C9.91839 5.04184 9.86005 5.18413 9.79684 5.32812Z" fill="#CBB4FF"/>
</svg>
