<svg width="20" height="20" viewBox="0 0 20 20" fill="none" xmlns="http://www.w3.org/2000/svg">
<path d="M17 10C17 6.13401 13.866 3 10 3C6.13401 3 3 6.13401 3 10C3 13.866 6.13401 17 10 17C13.866 17 17 13.866 17 10Z" fill="black"/>
<path d="M10 17C13.866 17 17 13.866 17 10C17 6.13401 13.866 3 10 3C6.13401 3 3 6.13401 3 10C3 13.866 6.13401 17 10 17Z" fill="white"/>
<path d="M15.7085 8.90301C14.8485 9.15723 13.9578 9.28638 13.0525 9.28638C11.9582 9.28638 10.8835 9.09775 9.85855 8.72556C8.92218 8.38642 7.93907 8.21456 6.93675 8.21456C6.12786 8.21456 5.33118 8.32692 4.56165 8.54811L4.29199 7.76153C4.66641 7.65119 5.04683 7.56628 5.43113 7.50374V6.72784L9.99979 3.77727L14.5685 6.72784V8.3193C14.8618 8.26693 15.152 8.19931 15.4389 8.11643L15.7085 8.90301ZM13.4077 7.3929L9.99979 5.19179L6.60067 7.3873C6.71236 7.38323 6.82459 7.3812 6.93675 7.3812C8.03007 7.3812 9.10278 7.56882 10.1253 7.93898C11.0646 8.28015 12.0496 8.45302 13.0525 8.45302C13.171 8.45302 13.2896 8.44998 13.4077 8.44489V7.3929Z" fill="#0047BA"/>
<path d="M14.5689 12.4943V13.2717L10.0003 16.2222L5.43159 13.2717V11.6781C5.13829 11.73 4.84803 11.7977 4.56165 11.8801L4.29199 11.0934C5.14864 10.8413 6.03632 10.7131 6.9373 10.7131C8.03062 10.7131 9.10325 10.9008 10.1257 11.2714C11.065 11.6126 12.0502 11.7855 13.053 11.7855C13.8663 11.7855 14.6668 11.6721 15.4409 11.4478L15.7106 12.2344C15.3356 12.3452 14.9542 12.4312 14.5689 12.4943ZM9.85902 12.0575C8.92265 11.7184 7.93954 11.5465 6.9373 11.5465C6.82211 11.5465 6.70699 11.5495 6.59235 11.5541V12.6071L10.0003 14.8077L13.4003 12.6117C13.2847 12.6158 13.1691 12.6183 13.053 12.6183C11.9586 12.6183 10.884 12.4296 9.85902 12.0575Z" fill="#0047BA"/>
<path d="M13.0529 10.9526C11.9586 10.9526 10.884 10.764 9.85901 10.3918C8.92264 10.0526 7.93953 9.88076 6.93721 9.88076C5.93496 9.88076 4.97448 10.0491 4.04745 10.3806L3.77826 9.59552C4.79194 9.23249 5.85477 9.04792 6.93721 9.04792C8.01972 9.04792 9.10324 9.23554 10.1257 9.6057C11.065 9.94687 12.0502 10.1197 13.0529 10.1197C14.0557 10.1197 15.0231 9.94992 15.953 9.61637L16.2222 10.4014C15.2051 10.767 14.1393 10.9526 13.0529 10.9526Z" fill="#009ADE"/>
</svg>
