<svg width="20" height="20" viewBox="0 0 20 20" fill="none" xmlns="http://www.w3.org/2000/svg">
<path fill-rule="evenodd" clip-rule="evenodd" d="M15.8012 11.1883C15.4978 10.8174 14.9578 10.7666 14.5944 11.0763L10.8573 14.2545V3.87482C10.8573 3.39192 10.4733 3 10.0001 3C9.527 3 9.14301 3.39192 9.14301 3.87482V14.2545L5.4059 11.0763C5.04162 10.7666 4.50162 10.8174 4.19906 11.1883C3.89563 11.5592 3.94449 12.1112 4.30877 12.42L9.45157 16.7941C9.49186 16.8291 9.53986 16.8457 9.58443 16.872C9.61957 16.893 9.65043 16.9175 9.689 16.9332C9.78928 16.9734 9.89386 16.9971 10.0001 16.9971C10.1064 16.9971 10.211 16.9734 10.3113 16.9332C10.3499 16.9175 10.3807 16.893 10.4158 16.872C10.4604 16.8457 10.5084 16.8291 10.5487 16.7941L15.6915 12.42C16.0549 12.1112 16.1046 11.5592 15.8012 11.1883Z" fill="#48464D"/>
</svg>
