<svg width="20" height="20" viewBox="0 0 20 20" fill="none" xmlns="http://www.w3.org/2000/svg">
<path fill-rule="evenodd" clip-rule="evenodd" d="M3.00002 11H14.8653L11.2322 15.3601C10.8782 15.7841 10.9362 16.4152 11.3602 16.7682C11.7852 17.1222 12.4152 17.0642 12.7692 16.6402L17.7693 10.64C17.8083 10.593 17.8273 10.538 17.8563 10.486C17.8803 10.444 17.9093 10.408 17.9273 10.362C17.9723 10.247 17.9993 10.126 17.9993 10.004C17.9993 10.003 18.0003 10.001 18.0003 10C18.0003 9.99902 17.9993 9.99702 17.9993 9.99602C17.9993 9.87402 17.9723 9.75302 17.9273 9.63801C17.9093 9.59201 17.8803 9.55601 17.8563 9.51401C17.8273 9.46201 17.8083 9.40701 17.7693 9.36001L12.7692 3.35989C12.5702 3.12288 12.2862 2.99988 12.0002 2.99988C11.7742 2.99988 11.5472 3.07588 11.3602 3.23188C10.9362 3.58489 10.8782 4.2159 11.2322 4.63991L14.8653 9H3.00002C2.44801 9 2 9.44801 2 10C2 10.552 2.44801 11 3.00002 11Z" fill="#48464D"/>
</svg>
