<svg width="20" height="20" viewBox="0 0 20 20" fill="none" xmlns="http://www.w3.org/2000/svg">
<path fill-rule="evenodd" clip-rule="evenodd" d="M5.62451 16.2222C5.14239 16.2222 4.74951 15.8231 4.74951 15.3333C4.74951 14.8435 5.14239 14.4444 5.62451 14.4444H15.2495V16.2222H5.62451ZM5.62451 3.77775H15.2495V12.6666H5.62451C5.31564 12.6666 5.02426 12.7306 4.74951 12.8302V4.66664C4.74951 4.17686 5.14239 3.77775 5.62451 3.77775ZM16.125 2H5.625C4.17775 2 3 3.19644 3 4.66667V15.3333C3 16.8036 4.17775 18 5.625 18H15.25H16.125C16.608 18 17 17.6018 17 17.1111V16.2222V14.4444V2.88889C17 2.39822 16.608 2 16.125 2Z" fill="#48464D"/>
</svg>
