<svg width="20" height="20" viewBox="0 0 20 20" fill="none" xmlns="http://www.w3.org/2000/svg">
<path fill-rule="evenodd" clip-rule="evenodd" d="M6.11109 13.2C6.11109 12.76 6.46109 12.4 6.88887 12.4C7.31665 12.4 7.66665 12.76 7.66665 13.2C7.66665 13.64 7.31665 14 6.88887 14C6.46109 14 6.11109 13.64 6.11109 13.2ZM10.0006 12.4H13.1117C13.5395 12.4 13.8895 12.76 13.8895 13.2C13.8895 13.64 13.5395 14 13.1117 14H10.0006C9.57282 14 9.22282 13.64 9.22282 13.2C9.22282 12.76 9.57282 12.4 10.0006 12.4ZM14.6664 16.4H5.33307C4.90451 16.4 4.55529 16.0408 4.55529 15.6V10.8H15.4442V15.6C15.4442 16.0408 15.095 16.4 14.6664 16.4ZM5.33307 5.20001H6.11085V6.00001C6.11085 6.44001 6.46085 6.80001 6.88862 6.80001C7.3164 6.80001 7.6664 6.44001 7.6664 6.00001V5.20001H12.3331V6.00001C12.3331 6.44001 12.6831 6.80001 13.1108 6.80001C13.5386 6.80001 13.8886 6.44001 13.8886 6.00001V5.20001H14.6664C15.095 5.20001 15.4442 5.55921 15.4442 6.00001V9.20001H4.55529V6.00001C4.55529 5.55921 4.90451 5.20001 5.33307 5.20001ZM14.6667 3.6H13.8889V2.8C13.8889 2.36 13.5389 2 13.1111 2C12.6833 2 12.3333 2.36 12.3333 2.8V3.6H7.66667V2.8C7.66667 2.36 7.31667 2 6.88889 2C6.46111 2 6.11111 2.36 6.11111 2.8V3.6H5.33333C4.04689 3.6 3 4.6768 3 6V15.6C3 16.9232 4.04689 18 5.33333 18H14.6667C15.9531 18 17 16.9232 17 15.6V6C17 4.6768 15.9531 3.6 14.6667 3.6Z" fill="#48464D"/>
</svg>
