<svg width="20" height="20" viewBox="0 0 20 20" fill="none" xmlns="http://www.w3.org/2000/svg">
<path fill-rule="evenodd" clip-rule="evenodd" d="M10.0002 12.7222C9.33856 12.7222 8.80016 12.1988 8.80016 11.5556C8.80016 10.9123 9.33856 10.3889 10.0002 10.3889C10.6618 10.3889 11.2002 10.9123 11.2002 11.5556C11.2002 12.1988 10.6618 12.7222 10.0002 12.7222ZM9.99973 8.83331C8.45573 8.83331 7.19973 10.0544 7.19973 11.5555C7.19973 13.0566 8.45573 14.2778 9.99973 14.2778C11.5437 14.2778 12.7997 13.0566 12.7997 11.5555C12.7997 10.0544 11.5437 8.83331 9.99973 8.83331ZM16.4 14.6667C16.4 15.0952 16.0416 15.4445 15.6 15.4445H4.39995C3.95835 15.4445 3.59995 15.0952 3.59995 14.6667V8.44446C3.59995 8.01591 3.95835 7.66669 4.39995 7.66669H15.6C16.0416 7.66669 16.4 8.01591 16.4 8.44446V14.6667ZM8.39981 4.94446C8.39981 4.72979 8.57981 4.55557 8.79981 4.55557H11.1998C11.4198 4.55557 11.5998 4.72979 11.5998 4.94446V6.11113H8.39981V4.94446ZM15.6 6.11111H13.2V4.94444C13.2 3.87267 12.3032 3 11.2 3H8.8C7.6968 3 6.8 3.87267 6.8 4.94444V6.11111H4.4C3.0768 6.11111 2 7.158 2 8.44444V14.6667C2 15.9531 3.0768 17 4.4 17H15.6C16.9232 17 18 15.9531 18 14.6667V8.44444C18 7.158 16.9232 6.11111 15.6 6.11111Z" fill="#48464D"/>
</svg>
