<svg width="20" height="20" viewBox="0 0 20 20" fill="none" xmlns="http://www.w3.org/2000/svg">
<path fill-rule="evenodd" clip-rule="evenodd" d="M12.8001 9.29996H10.7V7.19992C10.7 6.81281 10.3864 6.4999 10 6.4999C9.6136 6.4999 9.29999 6.81281 9.29999 7.19992V9.99998C9.29999 10.3871 9.6136 10.7 10 10.7H12.8001C13.1872 10.7 13.5001 10.3871 13.5001 9.99998C13.5001 9.61287 13.1872 9.29996 12.8001 9.29996ZM9.99987 15.6001C6.9121 15.6001 4.39974 13.0878 4.39974 9.99998C4.39974 6.91221 6.9121 4.39985 9.99987 4.39985C13.0876 4.39985 15.6 6.91221 15.6 9.99998C15.6 13.0878 13.0876 15.6001 9.99987 15.6001ZM9.99984 2.99982C6.13995 2.99982 2.99968 6.14009 2.99968 9.99998C2.99968 13.8599 6.13995 17.0001 9.99984 17.0001C13.8597 17.0001 17 13.8599 17 9.99998C17 6.14009 13.8597 2.99982 9.99984 2.99982Z" fill="#48464D"/>
</svg>
