<svg width="20" height="20" viewBox="0 0 20 20" fill="none" xmlns="http://www.w3.org/2000/svg">
<path fill-rule="evenodd" clip-rule="evenodd" d="M7.5893 12.8C7.3751 12.8 7.2001 12.6257 7.2001 12.4108V7.19999H12.4116C12.6258 7.19999 12.8001 7.37429 12.8001 7.58919V12.8H7.5893ZM16.2999 12.8H14.1999V7.58918C14.1999 6.60218 13.3977 5.79998 12.4114 5.79998H7.19991V3.69998C7.19991 3.31288 6.88701 2.99998 6.49991 2.99998C6.11351 2.99998 5.79991 3.31288 5.79991 3.69998V5.79998H3.69991C3.31351 5.79998 2.99991 6.11288 2.99991 6.49998C2.99991 6.88708 3.31351 7.19998 3.69991 7.19998H5.79991V12.4108C5.79991 13.3978 6.60281 14.2 7.58911 14.2H12.7999V16.3C12.7999 16.6871 13.1135 17 13.4999 17C13.887 17 14.1999 16.6871 14.1999 16.3V14.2H16.2999C16.687 14.2 16.9999 13.8871 16.9999 13.5C16.9999 13.1129 16.687 12.8 16.2999 12.8Z" fill="#48464D"/>
</svg>
