<svg width="20" height="20" viewBox="0 0 20 20" fill="none" xmlns="http://www.w3.org/2000/svg">
<path fill-rule="evenodd" clip-rule="evenodd" d="M15.5998 15.25H4.39979C3.95899 15.25 3.59979 14.858 3.59979 14.375V5.84375L9.51979 10.7C9.66219 10.8173 9.83099 10.875 9.99979 10.875C10.1686 10.875 10.3374 10.8173 10.4798 10.7L16.3998 5.84375V14.375C16.3998 14.858 16.0406 15.25 15.5998 15.25ZM15.0666 4.75L10.0002 8.90625L4.93378 4.75H15.0666ZM15.6 3H4.4C3.0768 3 2 4.17775 2 5.625V14.375C2 15.8223 3.0768 17 4.4 17H15.6C16.9232 17 18 15.8223 18 14.375V5.625C18 4.17775 16.9232 3 15.6 3Z" fill="#48464D"/>
</svg>
