<svg width="20" height="20" viewBox="0 0 20 20" fill="none" xmlns="http://www.w3.org/2000/svg">
<path fill-rule="evenodd" clip-rule="evenodd" d="M9.01757 13.9618L10.7903 15.3244V11.2773C10.7903 11.1298 10.8271 10.9849 10.8953 10.8551L14.6578 3.77777H5.31284L8.91957 10.8693C8.98432 10.9955 9.01757 11.136 9.01757 11.2773V13.9618ZM11.6653 18C11.4789 18 11.2925 17.9396 11.1377 17.8196L7.61493 15.1129C7.39618 14.9449 7.26755 14.6827 7.26755 14.4044V11.4942L3.0982 3.29689C2.95733 3.02133 2.9687 2.69156 3.12795 2.42667C3.28632 2.16178 3.56982 2 3.8752 2H16.1251C16.4331 2 16.7184 2.16444 16.8768 2.43378C17.0343 2.70222 17.0413 3.03556 16.8951 3.31111L12.5403 11.5022V17.1111C12.5403 17.448 12.353 17.7564 12.0555 17.9067C11.9322 17.9689 11.7983 18 11.6653 18Z" fill="#48464D"/>
</svg>
