<svg width="20" height="20" viewBox="0 0 20 20" fill="none" xmlns="http://www.w3.org/2000/svg">
<path fill-rule="evenodd" clip-rule="evenodd" d="M12.9681 17C12.5817 17 12.2681 16.6871 12.2681 16.3V14.4808C12.301 14.0167 12.1617 13.6129 11.888 13.3196C11.7067 13.1264 11.6507 12.8478 11.7417 12.6C11.8327 12.3515 12.0553 12.1758 12.3185 12.1457C14.0223 11.9484 15.6 11.3632 15.6 8.44225C15.6 7.88228 15.4376 7.34261 15.1303 6.88344C14.8496 6.46486 14.7474 5.95459 14.8412 5.44641C14.9028 5.11533 14.8993 4.77865 14.8328 4.45317C14.55 4.53716 14.0657 4.73665 13.3678 5.22243C13.1963 5.34142 12.9786 5.37712 12.7784 5.32112C11.5156 4.96624 10.1807 4.96624 8.91726 5.32112C8.71637 5.37712 8.50007 5.34142 8.32858 5.22243C7.63769 4.74155 7.1561 4.54136 6.86211 4.45877C6.79631 4.78145 6.79351 5.11533 6.85441 5.44431C6.9475 5.94969 6.84181 6.46556 6.55621 6.89814C6.25242 7.35941 6.09352 7.89838 6.09632 8.45835C6.09632 11.184 7.41159 11.9113 9.38625 12.1653C9.64665 12.1989 9.86645 12.3753 9.95604 12.6224C10.0449 12.8695 9.98824 13.1453 9.80905 13.3371C9.53815 13.6276 9.39885 14.0272 9.42615 14.4339L9.42685 14.9855C9.42825 15.0135 9.42825 15.0415 9.42685 15.0695L9.42755 16.3C9.42755 16.6871 9.11466 17 8.72757 17C8.34118 17 8.02758 16.6871 8.02758 16.3V15.9003C6.14812 16.1453 5.07714 15.1381 4.33446 14.4381C4.02646 14.149 3.73667 13.8754 3.52457 13.8201C3.15008 13.7228 2.92539 13.3406 3.02268 12.9668C3.11998 12.593 3.50217 12.3648 3.87597 12.4649C4.43526 12.6105 4.85245 13.0032 5.29414 13.419C6.00952 14.093 6.68851 14.7314 8.02758 14.4829V14.4808C8.00168 14.1105 8.05698 13.7312 8.18508 13.3721C6.74731 13.0137 4.69635 11.9687 4.69635 8.46185C4.69215 7.6275 4.93155 6.81974 5.38724 6.12748C5.47263 5.99798 5.50483 5.84609 5.47753 5.6984C5.33754 4.94034 5.41804 4.16198 5.71203 3.45082C5.79183 3.25763 5.95352 3.10994 6.15302 3.04835C6.38472 2.97695 7.2387 2.84046 8.85637 3.8904C10.166 3.57612 11.5303 3.57612 12.8393 3.8904C14.4577 2.84046 15.3109 2.97625 15.5426 3.04835C15.7421 3.10994 15.9038 3.25763 15.9836 3.45082C16.2783 4.16338 16.3588 4.94104 16.2181 5.7012C16.1908 5.84749 16.2181 5.99099 16.2937 6.10508C16.7557 6.79594 17 7.6037 17 8.44225C17 11.9869 14.9539 13.0193 13.5141 13.3651C13.6429 13.7354 13.6968 14.1336 13.666 14.5347L13.6681 16.3C13.6681 16.6871 13.3545 17 12.9681 17Z" fill="#48464D"/>
</svg>
