<svg width="20" height="20" viewBox="0 0 20 20" fill="none" xmlns="http://www.w3.org/2000/svg">
<path fill-rule="evenodd" clip-rule="evenodd" d="M8.20946 11.5556L8.77646 8.44435H11.7903L11.2233 11.5556H8.20946ZM16.2222 11.5557H12.8762L13.4432 8.44435H16.2222C16.65 8.44435 17 8.09433 17 7.66652C17 7.23872 16.65 6.8887 16.2222 6.8887H13.7256L14.2653 3.92441C14.3431 3.49816 14.046 3.08669 13.605 3.01202C13.164 2.93657 12.7401 3.22436 12.6623 3.65139L12.0728 6.8887H9.05889L9.59867 3.92441C9.67644 3.49816 9.37933 3.08669 8.93833 3.01202C8.49733 2.93657 8.07344 3.22436 7.99567 3.65139L7.40611 6.8887H3.77778C3.35 6.8887 3 7.23872 3 7.66652C3 8.09433 3.35 8.44435 3.77778 8.44435H7.12378L6.55678 11.5557H3.77778C3.35 11.5557 3 11.9057 3 12.3335C3 12.7613 3.35 13.1113 3.77778 13.1113H6.27367L5.73389 16.0756C5.65689 16.5018 5.954 16.9133 6.395 16.988C6.83522 17.0634 7.25989 16.7756 7.33689 16.3486L7.92644 13.1113H10.9403L10.4006 16.0756C10.3236 16.5018 10.6207 16.9133 11.0617 16.988C11.5019 17.0634 11.9266 16.7756 12.0036 16.3486L12.5931 13.1113H16.2222C16.65 13.1113 17 12.7613 17 12.3335C17 11.9057 16.65 11.5557 16.2222 11.5557Z" fill="#48464D"/>
</svg>
