<svg width="20" height="20" viewBox="0 0 20 20" fill="none" xmlns="http://www.w3.org/2000/svg">
<path fill-rule="evenodd" clip-rule="evenodd" d="M14.9003 15.6001C14.5132 15.6001 14.2003 15.2872 14.2003 14.9001C14.2003 14.513 14.5132 14.2001 14.9003 14.2001C15.2874 14.2001 15.6003 14.513 15.6003 14.9001C15.6003 15.2872 15.2874 15.6001 14.9003 15.6001ZM14.9 12.8001C13.7422 12.8001 12.7999 13.7423 12.7999 14.9002C12.7999 16.058 13.7422 17.0002 14.9 17.0002C16.0578 17.0002 17 16.058 17 14.9002C17 13.7423 16.0578 12.8001 14.9 12.8001ZM10 15.6001C9.61291 15.6001 9.3 15.2872 9.3 14.9001C9.3 14.513 9.61291 14.2001 10 14.2001C10.3871 14.2001 10.7 14.513 10.7 14.9001C10.7 15.2872 10.3871 15.6001 10 15.6001ZM10.0002 12.8001C8.84233 12.8001 7.90011 13.7423 7.90011 14.9002C7.90011 16.058 8.84233 17.0002 10.0002 17.0002C11.158 17.0002 12.1002 16.058 12.1002 14.9002C12.1002 13.7423 11.158 12.8001 10.0002 12.8001ZM5.09977 15.6001C4.71266 15.6001 4.39975 15.2872 4.39975 14.9001C4.39975 14.513 4.71266 14.2001 5.09977 14.2001C5.48688 14.2001 5.79979 14.513 5.79979 14.9001C5.79979 15.2872 5.48688 15.6001 5.09977 15.6001ZM5.09991 12.8001C3.94208 12.8001 2.99986 13.7423 2.99986 14.9002C2.99986 16.058 3.94208 17.0002 5.09991 17.0002C6.25773 17.0002 7.19995 16.058 7.19995 14.9002C7.19995 13.7423 6.25773 12.8001 5.09991 12.8001ZM14.9003 10.7C14.5132 10.7 14.2003 10.3871 14.2003 10C14.2003 9.61292 14.5132 9.30001 14.9003 9.30001C15.2874 9.30001 15.6003 9.61292 15.6003 10C15.6003 10.3871 15.2874 10.7 14.9003 10.7ZM14.9 7.89996C13.7422 7.89996 12.7999 8.84218 12.7999 10C12.7999 11.1578 13.7422 12.1001 14.9 12.1001C16.0578 12.1001 17 11.1578 17 10C17 8.84218 16.0578 7.89996 14.9 7.89996ZM10 10.7C9.61291 10.7 9.3 10.3871 9.3 10C9.3 9.61292 9.61291 9.30001 10 9.30001C10.3871 9.30001 10.7 9.61292 10.7 10C10.7 10.3871 10.3871 10.7 10 10.7ZM10.0002 7.89996C8.84233 7.89996 7.90011 8.84218 7.90011 10C7.90011 11.1578 8.84233 12.1001 10.0002 12.1001C11.158 12.1001 12.1002 11.1578 12.1002 10C12.1002 8.84218 11.158 7.89996 10.0002 7.89996ZM5.09977 10.7C4.71266 10.7 4.39975 10.3871 4.39975 10C4.39975 9.61292 4.71266 9.30001 5.09977 9.30001C5.48688 9.30001 5.79979 9.61292 5.79979 10C5.79979 10.3871 5.48688 10.7 5.09977 10.7ZM5.09991 7.89996C3.94208 7.89996 2.99986 8.84218 2.99986 10C2.99986 11.1578 3.94208 12.1001 5.09991 12.1001C6.25773 12.1001 7.19995 11.1578 7.19995 10C7.19995 8.84218 6.25773 7.89996 5.09991 7.89996ZM14.9003 4.39991C15.2874 4.39991 15.6003 4.71282 15.6003 5.09993C15.6003 5.48704 15.2874 5.79995 14.9003 5.79995C14.5132 5.79995 14.2003 5.48704 14.2003 5.09993C14.2003 4.71282 14.5132 4.39991 14.9003 4.39991ZM14.9 7.19996C16.0578 7.19996 17 6.25774 17 5.09991C17 3.94208 16.0578 2.99986 14.9 2.99986C13.7422 2.99986 12.7999 3.94208 12.7999 5.09991C12.7999 6.25774 13.7422 7.19996 14.9 7.19996ZM10 5.79995C9.61291 5.79995 9.3 5.48634 9.3 5.09993C9.3 4.71282 9.61291 4.39991 10 4.39991C10.3871 4.39991 10.7 4.71282 10.7 5.09993C10.7 5.48634 10.3871 5.79995 10 5.79995ZM10.0002 2.99986C8.84233 2.99986 7.90011 3.94208 7.90011 5.09991C7.90011 6.25774 8.84233 7.19996 10.0002 7.19996C11.158 7.19996 12.1002 6.25774 12.1002 5.09991C12.1002 3.94208 11.158 2.99986 10.0002 2.99986ZM5.09977 5.79995C4.71266 5.79995 4.39975 5.48704 4.39975 5.09993C4.39975 4.71282 4.71266 4.39991 5.09977 4.39991C5.48688 4.39991 5.79979 4.71282 5.79979 5.09993C5.79979 5.48704 5.48688 5.79995 5.09977 5.79995ZM5.09974 2.99988C3.94192 2.99988 2.99969 3.94211 2.99969 5.09993C2.99969 6.25776 3.94192 7.19998 5.09974 7.19998C6.25757 7.19998 7.19979 6.25776 7.19979 5.09993C7.19979 3.94211 6.25757 2.99988 5.09974 2.99988Z" fill="#48464D"/>
</svg>
