<svg width="20" height="20" viewBox="0 0 20 20" fill="none" xmlns="http://www.w3.org/2000/svg">
<path fill-rule="evenodd" clip-rule="evenodd" d="M15.6 10C15.6 13.0928 13.0928 15.6 10 15.6C6.90721 15.6 4.4 13.0928 4.4 10C4.4 6.90721 6.90721 4.4 10 4.4C13.0928 4.4 15.6 6.90721 15.6 10ZM17 10C17 13.866 13.866 17 10 17C6.13401 17 3 13.866 3 10C3 6.13401 6.13401 3 10 3C13.866 3 17 6.13401 17 10ZM10.9933 14.7993C10.4524 14.9106 10 14.4523 10 13.9V6.1C10 5.54771 10.4524 5.08936 10.9933 5.20074C13.2233 5.65987 14.9 7.63412 14.9 10C14.9 12.3659 13.2233 14.3401 10.9933 14.7993Z" fill="#48464D"/>
</svg>
