<svg width="20" height="20" viewBox="0 0 20 20" fill="none" xmlns="http://www.w3.org/2000/svg">
<path fill-rule="evenodd" clip-rule="evenodd" d="M9.29981 3.69983C9.29981 3.31272 9.61342 2.99982 9.99983 2.99982C10.3862 2.99982 10.6998 3.31272 10.6998 3.69983V5.09987C10.6998 5.48697 10.3862 5.79988 9.99983 5.79988C9.61342 5.79988 9.29981 5.48697 9.29981 5.09987V3.69983ZM14.9001 9.29996H16.3001C16.6865 9.29996 17.0001 9.61287 17.0001 9.99998C17.0001 10.3871 16.6865 10.7 16.3001 10.7H14.9001C14.5137 10.7 14.2001 10.3871 14.2001 9.99998C14.2001 9.61287 14.5137 9.29996 14.9001 9.29996ZM5.79973 9.99998C5.79973 9.61287 5.48612 9.29996 5.09971 9.29996H3.69968C3.31327 9.29996 2.99966 9.61287 2.99966 9.99998C2.99966 10.3871 3.31327 10.7 3.69968 10.7H5.09971C5.48612 10.7 5.79973 10.3871 5.79973 9.99998ZM4.9642 5.13717C5.23371 4.85997 5.67612 4.85087 5.95402 5.11967L6.96135 6.09269C7.23925 6.3608 7.24695 6.80461 6.97815 7.08252C6.84094 7.22462 6.65824 7.29602 6.47483 7.29602C6.29983 7.29602 6.12483 7.23162 5.98832 7.10002L4.981 6.127C4.70309 5.85889 4.69539 5.41508 4.9642 5.13717ZM13.5244 7.2963C13.6994 7.2963 13.8744 7.2312 14.0109 7.1003L15.0182 6.12728C15.2961 5.85847 15.3038 5.41466 15.035 5.13745C14.7669 4.86025 14.3245 4.85115 14.0452 5.11995L13.0379 6.09228C12.76 6.36108 12.7523 6.80489 13.0211 7.0821C13.1583 7.2242 13.341 7.2963 13.5244 7.2963ZM9.29981 14.9001C9.29981 14.513 9.61342 14.2001 9.99983 14.2001C10.3862 14.2001 10.6998 14.513 10.6998 14.9001V16.3001C10.6998 16.6872 10.3862 17.0002 9.99983 17.0002C9.61342 17.0002 9.29981 16.6872 9.29981 16.3001V14.9001ZM14.0109 12.8999C13.733 12.6318 13.2899 12.6402 13.0211 12.9174C12.7523 13.1953 12.76 13.6391 13.0379 13.9072L14.0452 14.8802C14.1817 15.0118 14.3567 15.0762 14.5317 15.0762C14.7151 15.0762 14.8978 15.0048 15.035 14.8627C15.3038 14.5848 15.2961 14.141 15.0182 13.8729L14.0109 12.8999ZM4.98141 13.8729L5.98873 12.8999C6.26734 12.6318 6.71045 12.6402 6.97856 12.9174C7.24736 13.1953 7.23966 13.6391 6.96176 13.9072L5.95443 14.8802C5.81793 15.0118 5.64293 15.0762 5.46792 15.0762C5.28452 15.0762 5.10181 15.0048 4.96461 14.8627C4.6958 14.5848 4.7035 14.141 4.98141 13.8729Z" fill="#48464D"/>
</svg>
