<svg width="20" height="20" viewBox="0 0 20 20" fill="none" xmlns="http://www.w3.org/2000/svg">
<path fill-rule="evenodd" clip-rule="evenodd" d="M12.1017 14.0862L10.8022 10.1887L14.7006 6.28979L12.1017 14.0862ZM13.7106 5.29984L9.81222 9.19803L5.91386 7.89863L13.7106 5.29984ZM16.9957 3.6616C16.9922 3.59649 16.9803 3.53348 16.9586 3.47257C16.9516 3.45087 16.9439 3.42986 16.9341 3.40886C16.9005 3.33395 16.8578 3.26324 16.7976 3.20303C16.7374 3.14282 16.6667 3.10012 16.591 3.06651C16.5707 3.05671 16.5504 3.04901 16.5287 3.04201C16.4664 3.0203 16.4027 3.0077 16.3362 3.0042C16.3208 3.0035 16.3068 3 16.2907 3C16.2207 3.0014 16.15 3.0112 16.0813 3.03361L3.47889 7.23423C3.19254 7.33015 3 7.59689 3 7.89863C3 8.20038 3.19254 8.46782 3.47889 8.56303L9.44755 10.5527L11.438 16.5218C11.5333 16.8075 11.8 17 12.1018 17C12.4035 17 12.6703 16.8075 12.7655 16.5218L16.9663 3.91994C16.9887 3.85063 16.9992 3.78062 16.9999 3.71061C17.0006 3.6938 16.9964 3.6784 16.9957 3.6616Z" fill="#48464D"/>
</svg>
