<svg width="20" height="20" viewBox="0 0 20 20" fill="none" xmlns="http://www.w3.org/2000/svg">
<path fill-rule="evenodd" clip-rule="evenodd" d="M7.19992 7.89994C7.19992 7.51493 7.51493 7.19992 7.89994 7.19992C8.28495 7.19992 8.59996 7.51493 8.59996 7.89994V12.1C8.59996 12.485 8.28495 12.8001 7.89994 12.8001C7.51493 12.8001 7.19992 12.485 7.19992 12.1V7.89994ZM11.3997 7.89994C11.3997 7.51494 11.7147 7.19993 12.0997 7.19993C12.4847 7.19993 12.7997 7.51494 12.7997 7.89994V12.1C12.7997 12.4851 12.4847 12.8001 12.0997 12.8001C11.7147 12.8001 11.3997 12.4851 11.3997 12.1V7.89994ZM9.99985 15.6001C6.91208 15.6001 4.39972 13.0878 4.39972 10C4.39972 6.91224 6.91208 4.39988 9.99985 4.39988C13.0876 4.39988 15.6 6.91224 15.6 10C15.6 13.0878 13.0876 15.6001 9.99985 15.6001ZM9.99983 2.99985C6.13994 2.99985 2.99966 6.14012 2.99966 10C2.99966 13.8599 6.13994 17.0002 9.99983 17.0002C13.8597 17.0002 17 13.8599 17 10C17 6.14012 13.8597 2.99985 9.99983 2.99985Z" fill="#48464D"/>
</svg>
