<svg width="20" height="20" viewBox="0 0 20 20" fill="none" xmlns="http://www.w3.org/2000/svg">
<path fill-rule="evenodd" clip-rule="evenodd" d="M4.55542 9.22224C4.55542 6.64857 6.64842 4.55557 9.22208 4.55557C11.7958 4.55557 13.8888 6.64857 13.8888 9.22224C13.8888 11.7959 11.7958 13.8889 9.22208 13.8889C6.64842 13.8889 4.55542 11.7959 4.55542 9.22224ZM16.7721 15.6723L14.1316 13.031C14.9506 11.9779 15.4445 10.658 15.4445 9.22222C15.4445 5.79144 12.653 3 9.22223 3C5.79145 3 3.00001 5.79144 3.00001 9.22222C3.00001 12.653 5.79145 15.4444 9.22223 15.4444C10.658 15.4444 11.9779 14.9506 13.031 14.1316L15.6723 16.7721C15.824 16.9238 16.0231 17 16.2222 17C16.4213 17 16.6205 16.9238 16.7721 16.7721C17.0762 16.468 17.0762 15.9764 16.7721 15.6723Z" fill="#48464D"/>
</svg>
