<svg width="20" height="20" viewBox="0 0 20 20" fill="none" xmlns="http://www.w3.org/2000/svg">
<path fill-rule="evenodd" clip-rule="evenodd" d="M5.33318 4.55555C4.90463 4.55555 4.5554 4.90477 4.5554 5.33332V14.6667C4.5554 15.0952 4.90463 15.4444 5.33318 15.4444H14.6665C15.0951 15.4444 15.4443 15.0952 15.4443 14.6667V5.33332C15.4443 4.90477 15.0951 4.55555 14.6665 4.55555H5.33318ZM14.6667 17H5.33333C4.04689 17 3 15.9531 3 14.6667V5.33333C3 4.04689 4.04689 3 5.33333 3H14.6667C15.9531 3 17 4.04689 17 5.33333V14.6667C17 15.9531 15.9531 17 14.6667 17Z" fill="#48464D"/>
</svg>
