<svg width="20" height="20" viewBox="0 0 20 20" fill="none" xmlns="http://www.w3.org/2000/svg">
<path fill-rule="evenodd" clip-rule="evenodd" d="M11.4003 9.99999C11.4003 9.22789 10.7724 8.59999 10.0003 8.59999C9.22815 8.59999 8.60025 9.22789 8.60025 9.99999C8.60025 10.7721 9.22815 11.4 10.0003 11.4C10.7724 11.4 11.4003 10.7721 11.4003 9.99999ZM12.8003 9.99997C12.8003 11.5442 11.5445 12.8 10.0003 12.8C8.45615 12.8 7.20035 11.5442 7.20035 9.99997C7.20035 8.45577 8.45615 7.19997 10.0003 7.19997C11.5445 7.19997 12.8003 8.45577 12.8003 9.99997ZM5.98903 12.9001L4.98173 13.8724C4.70383 14.1412 4.69613 14.585 4.96493 14.8622C5.10213 15.0043 5.28483 15.0764 5.46823 15.0764C5.64323 15.0764 5.81823 15.0113 5.95473 14.8804L6.96203 13.9074C7.23993 13.6386 7.24763 13.1948 6.97883 12.9176C6.71073 12.6397 6.26763 12.632 5.98903 12.9001ZM14.0114 12.9001C13.7335 12.632 13.2904 12.6397 13.0216 12.9176C12.7528 13.1948 12.7605 13.6386 13.0384 13.9074L14.0457 14.8804C14.1822 15.0113 14.3572 15.0764 14.5322 15.0764C14.7156 15.0764 14.8983 15.0043 15.0355 14.8622C15.3043 14.585 15.2966 14.1412 15.0187 13.8724L14.0114 12.9001ZM9.99996 14.2C9.61356 14.2 9.29996 14.5129 9.29996 14.9V16.3C9.29996 16.6871 9.61356 17 9.99996 17C10.3864 17 10.7 16.6871 10.7 16.3V14.9C10.7 14.5129 10.3864 14.2 9.99996 14.2ZM13.5249 7.29657C13.6999 7.29657 13.8756 7.23147 14.0114 7.09987L15.0187 6.12757C15.2966 5.85877 15.3043 5.41497 15.0355 5.13777C14.7674 4.85987 14.325 4.85217 14.0457 5.11957L13.0384 6.09257C12.7605 6.36137 12.7528 6.80517 13.0216 7.08237C13.1588 7.22447 13.3415 7.29657 13.5249 7.29657ZM5.95473 5.11957C5.67683 4.85217 5.23373 4.85987 4.96493 5.13777C4.69613 5.41497 4.70383 5.85877 4.98173 6.12757L5.98903 7.09987C6.12483 7.23147 6.30053 7.29657 6.47553 7.29657C6.65893 7.29657 6.84163 7.22447 6.97883 7.08237C7.24763 6.80517 7.23993 6.36137 6.96203 6.09257L5.95473 5.11957ZM5.80015 9.99997C5.80015 9.61287 5.48655 9.29997 5.10015 9.29997H3.70015C3.31375 9.29997 3.00015 9.61287 3.00015 9.99997C3.00015 10.3871 3.31375 10.7 3.70015 10.7H5.10015C5.48655 10.7 5.80015 10.3871 5.80015 9.99997ZM16.3003 9.29997H14.9003C14.5139 9.29997 14.2003 9.61287 14.2003 9.99997C14.2003 10.3871 14.5139 10.7 14.9003 10.7H16.3003C16.6867 10.7 17.0003 10.3871 17.0003 9.99997C17.0003 9.61287 16.6867 9.29997 16.3003 9.29997ZM9.30015 5.09997V3.69997C9.30015 3.31287 9.61375 2.99997 10.0002 2.99997C10.3866 2.99997 10.7002 3.31287 10.7002 3.69997V5.09997C10.7002 5.48707 10.3866 5.79997 10.0002 5.79997C9.61375 5.79997 9.30015 5.48707 9.30015 5.09997Z" fill="#48464D"/>
</svg>
