<svg width="20" height="20" viewBox="0 0 20 20" fill="none" xmlns="http://www.w3.org/2000/svg">
<path fill-rule="evenodd" clip-rule="evenodd" d="M17.3776 8.69797C17.3721 8.71033 17.3666 8.72269 17.3614 8.73527C17.3562 8.7483 17.3521 8.76189 17.3479 8.77545C17.3413 8.7975 17.3346 8.81945 17.3233 8.83871C17.3008 8.87684 17.2713 8.90885 17.2418 8.94096C17.2333 8.95012 17.2249 8.95928 17.2166 8.9686C17.2074 8.97834 17.1993 8.98902 17.1911 8.99969C17.1797 9.01459 17.1684 9.02947 17.1542 9.04171C17.1115 9.07729 17.0622 9.10202 17.013 9.12666C17.0095 9.12842 17.006 9.13017 17.0025 9.13193C16.9921 9.13707 16.9823 9.14354 16.9724 9.15002C16.9584 9.15923 16.9443 9.16845 16.9286 9.17393C16.8463 9.20504 16.7587 9.22215 16.6681 9.22215C16.6269 9.22215 16.5842 9.21904 16.5423 9.21126L13.3042 8.66294C12.889 8.59294 12.6086 8.19239 12.6772 7.7685C12.7457 7.3454 13.1374 7.05529 13.5534 7.12918L14.8059 7.34073C13.8574 5.64053 12.0463 4.55554 10.0532 4.55554C7.79866 4.55554 5.81236 5.89175 4.99178 7.95828C4.87216 8.26161 4.58645 8.44438 4.28549 8.44438C4.19025 8.44438 4.09349 8.4265 3.99978 8.38761C3.60968 8.22661 3.42149 7.77317 3.57996 7.37495C4.63445 4.71731 7.17542 3 10.0532 3C12.6528 3 15.0155 4.45443 16.2079 6.72396L16.489 5.18942C16.5667 4.76787 16.966 4.48865 17.3782 4.56954C17.7919 4.64809 18.0646 5.05487 17.9869 5.47719L17.4163 8.58827C17.4089 8.62794 17.3933 8.66294 17.3776 8.69797ZM15.0085 12.0417C15.1662 11.6427 15.6112 11.4514 16.0005 11.6124C16.3906 11.7734 16.5788 12.2269 16.4203 12.6251C15.3658 15.2827 12.8248 17 9.94711 17C7.34748 17 4.98479 15.5456 3.7924 13.2761L3.5105 14.8098C3.44269 15.1839 3.12269 15.4445 2.7623 15.4445C2.71583 15.4445 2.66859 15.4398 2.62135 15.4305C2.20763 15.3519 1.93563 14.9452 2.01334 14.5228L2.58402 11.4117C2.58981 11.3812 2.60263 11.3541 2.61552 11.3268C2.62297 11.3111 2.63044 11.2953 2.63659 11.2788C2.64261 11.2633 2.64787 11.2472 2.65314 11.2311C2.66454 11.1964 2.67598 11.1615 2.69525 11.1318C2.7065 11.1141 2.7212 11.0999 2.73599 11.0856C2.74526 11.0767 2.75456 11.0677 2.76306 11.0579C2.76977 11.0499 2.77641 11.0419 2.78304 11.034C2.8193 10.9903 2.85523 10.9471 2.90097 10.9155C2.90546 10.9122 2.91083 10.9102 2.91613 10.9082C2.92073 10.9065 2.92527 10.9048 2.92916 10.9023C3.00307 10.8533 3.0823 10.8152 3.16992 10.7958C3.17526 10.7945 3.18082 10.7948 3.18636 10.7951C3.1911 10.7954 3.19583 10.7957 3.2004 10.795C3.28421 10.781 3.36878 10.7724 3.45793 10.788L6.69604 11.3371C7.11129 11.4063 7.39167 11.8076 7.3231 12.2315C7.26138 12.6118 6.93833 12.8817 6.57185 12.8817C6.53071 12.8817 6.4888 12.8786 6.4469 12.8708L5.19432 12.6593C6.1429 14.3595 7.95396 15.4445 9.94711 15.4445C12.2016 15.4445 14.1879 14.1083 15.0085 12.0417Z" fill="#48464D"/>
</svg>
