<svg width="20" height="20" viewBox="0 0 20 20" fill="none" xmlns="http://www.w3.org/2000/svg">
<path fill-rule="evenodd" clip-rule="evenodd" d="M15.4441 15.6C15.4441 16.0416 15.0956 16.4 14.6663 16.4H5.33295C4.90362 16.4 4.55518 16.0416 4.55518 15.6V7.60014C4.55518 7.15855 4.90362 6.80015 5.33295 6.80015H14.6663C15.0956 6.80015 15.4441 7.15855 15.4441 7.60014V15.6ZM14.6667 5.20016H11.8776L13.661 3.36578C13.9651 3.05299 13.9651 2.54739 13.661 2.2346C13.3569 1.9218 12.8653 1.9218 12.5612 2.2346L10 4.86896L7.43878 2.2346C7.13467 1.9218 6.64311 1.9218 6.339 2.2346C6.03489 2.54739 6.03489 3.05299 6.339 3.36578L8.12244 5.20016H5.33333C4.04689 5.20016 3 6.27695 3 7.60013V15.6C3 16.9232 4.04689 18 5.33333 18H14.6667C15.9531 18 17 16.9232 17 15.6V7.60013C17 6.27695 15.9531 5.20016 14.6667 5.20016Z" fill="#48464D"/>
</svg>
