<svg width="20" height="20" viewBox="0 0 20 20" fill="none" xmlns="http://www.w3.org/2000/svg">
<path fill-rule="evenodd" clip-rule="evenodd" d="M8.69782 9.17666C11.6982 9.17666 14.4048 10.5223 16.1168 12.684C15.3294 9.49783 12.302 7.1179 8.69782 7.1179C8.23213 7.1179 7.85571 6.74979 7.85571 6.29439V4.71079L3.7934 8.1481L7.85571 11.6167V10.0002C7.85571 9.54477 8.23213 9.17666 8.69782 9.17666ZM16.9229 17C16.5347 17 16.1961 16.7406 16.1044 16.3717C15.3549 13.3667 12.7183 11.1959 9.54015 10.8673V11.7905C9.54015 12.3719 9.18731 12.8899 8.61973 13.141C8.00415 13.4153 7.28583 13.3165 6.78647 12.8907L2.52036 9.24751C2.18941 8.96422 1.99994 8.56318 1.99994 8.1473C1.99994 7.73143 2.18941 7.33039 2.52036 7.0471L6.78647 3.40391C7.28583 2.97815 8.00415 2.87933 8.61973 3.15356C9.18731 3.40473 9.54015 3.92272 9.54015 4.50411V5.50714C14.2761 5.91313 17.9999 9.71197 17.9999 14.3236C17.9999 14.9906 17.9124 15.6791 17.7406 16.3708C17.6496 16.7406 17.3119 17 16.9229 17Z" fill="#48464D"/>
</svg>
