<svg width="20" height="20" viewBox="0 0 20 20" fill="none" xmlns="http://www.w3.org/2000/svg">
<path fill-rule="evenodd" clip-rule="evenodd" d="M7.59999 10.8571C7.15839 10.8571 6.79999 10.4731 6.79999 9.99997C6.79999 9.52683 7.15839 9.14283 7.59999 9.14283C8.04159 9.14283 8.39999 9.52683 8.39999 9.99997C8.39999 10.4731 8.04159 10.8571 7.59999 10.8571ZM7.60038 7.42852C6.27718 7.42852 5.20038 8.58223 5.20038 9.99995C5.20038 11.4177 6.27718 12.5714 7.60038 12.5714C8.92358 12.5714 10.0004 11.4177 10.0004 9.99995C10.0004 8.58223 8.92358 7.42852 7.60038 7.42852ZM12.3998 14.2857H7.59979C5.39419 14.2857 3.59979 12.3631 3.59979 9.99999C3.59979 7.63685 5.39419 5.71428 7.59979 5.71428H12.3998C14.6054 5.71428 16.3998 7.63685 16.3998 9.99999C16.3998 12.3631 14.6054 14.2857 12.3998 14.2857ZM12.4002 3.99997H7.60018C4.51298 3.99997 2.00018 6.69226 2.00018 9.99997C2.00018 13.3077 4.51298 16 7.60018 16H12.4002C15.4874 16 18.0002 13.3077 18.0002 9.99997C18.0002 6.69226 15.4874 3.99997 12.4002 3.99997Z" fill="#48464D"/>
</svg>
