<svg width="20" height="20" viewBox="0 0 20 20" fill="none" xmlns="http://www.w3.org/2000/svg">
<path fill-rule="evenodd" clip-rule="evenodd" d="M12.4002 10.8571C11.9586 10.8571 11.6002 10.4731 11.6002 10C11.6002 9.52685 11.9586 9.14285 12.4002 9.14285C12.8418 9.14285 13.2002 9.52685 13.2002 10C13.2002 10.4731 12.8418 10.8571 12.4002 10.8571ZM12.4002 7.4285C11.077 7.4285 10.0002 8.58221 10.0002 9.99993C10.0002 11.4176 11.077 12.5714 12.4002 12.5714C13.7234 12.5714 14.8002 11.4176 14.8002 9.99993C14.8002 8.58221 13.7234 7.4285 12.4002 7.4285ZM12.4002 14.2857H7.60018C5.39458 14.2857 3.60018 12.3631 3.60018 9.99998C3.60018 7.63684 5.39458 5.71426 7.60018 5.71426H12.4002C14.6058 5.71426 16.4002 7.63684 16.4002 9.99998C16.4002 12.3631 14.6058 14.2857 12.4002 14.2857ZM12.4002 3.99997H7.60018C4.51298 3.99997 2.00018 6.69226 2.00018 9.99997C2.00018 13.3077 4.51298 16 7.60018 16H12.4002C15.4874 16 18.0002 13.3077 18.0002 9.99997C18.0002 6.69226 15.4874 3.99997 12.4002 3.99997Z" fill="#48464D"/>
</svg>
