<svg width="20" height="20" viewBox="0 0 20 20" fill="none" xmlns="http://www.w3.org/2000/svg">
<path fill-rule="evenodd" clip-rule="evenodd" d="M4.68307 9.7354C5.46422 10.0035 6.08648 10.6573 6.34686 11.4861L6.37486 11.5701C6.67304 12.4493 6.55195 13.3957 6.05218 14.1055C5.96119 14.2343 5.98148 14.3883 6.07738 14.4611L7.52769 15.5629C7.57878 15.6014 7.62848 15.6014 7.65928 15.5979C7.69428 15.5923 7.74537 15.5734 7.78667 15.5146L7.94836 15.285C8.43063 14.6011 9.20758 14.179 10.0279 14.1552C10.9491 14.1363 11.7764 14.5584 12.2916 15.3025L12.3742 15.4222C12.4155 15.481 12.4659 15.5006 12.5016 15.5062C12.5324 15.5125 12.5828 15.5104 12.6332 15.4712L14.0758 14.3827C14.1766 14.3071 14.199 14.1454 14.1241 14.0369L13.9421 13.7744C13.4731 13.0968 13.3338 12.2176 13.5697 11.4231C13.8259 10.5579 14.4775 9.8733 15.314 9.5933L15.4547 9.5457C15.5674 9.5086 15.6283 9.3686 15.5884 9.2398L15.0375 7.4751C15.0116 7.3925 14.9584 7.3554 14.929 7.34C14.887 7.3183 14.8415 7.3148 14.7981 7.3295L14.5601 7.4086C13.7461 7.6795 12.8481 7.5325 12.1586 7.0138L12.083 6.9571C11.4278 6.4643 11.038 5.6698 11.0408 4.8326L11.0422 4.6366C11.0422 4.5435 10.9981 4.4854 10.9715 4.4588C10.9463 4.4329 10.9036 4.4021 10.8434 4.4021L9.06059 4.4C8.9514 4.4 8.8625 4.5043 8.8618 4.6331L8.8611 4.8025C8.8576 5.653 8.45933 6.4622 7.79577 6.9683L7.70548 7.0369C6.97542 7.592 6.02348 7.7488 5.16114 7.4548C5.12824 7.4436 5.09744 7.4457 5.06804 7.4611C5.04564 7.4723 5.00505 7.501 4.98545 7.5647L4.41358 9.3819C4.37229 9.5142 4.44018 9.6521 4.56827 9.6962L4.68307 9.7354ZM7.63061 17C7.29043 17 6.96005 16.8894 6.68147 16.6773L5.23116 15.5762C4.53821 15.0512 4.38492 14.0411 4.88888 13.325C5.15067 12.954 5.20456 12.4773 5.05057 12.0251L5.01208 11.9075C4.88398 11.5001 4.5914 11.1837 4.22953 11.0598H4.22883L4.11473 11.0199C3.26219 10.728 2.80722 9.8243 3.0781 8.9619L3.64926 7.1454C3.77875 6.7345 4.05804 6.4027 4.43601 6.2116C4.80559 6.0254 5.22346 5.9967 5.61404 6.1304C6.03331 6.2732 6.49878 6.1955 6.85786 5.9225L6.94815 5.8539C7.26733 5.6103 7.45982 5.2148 7.46122 4.7969L7.46192 4.6282C7.46542 3.7294 8.18288 3 9.05992 3H9.06272L10.8455 3.0021C11.2669 3.0028 11.6645 3.1694 11.964 3.4711C12.2741 3.7826 12.4435 4.1991 12.4421 4.6436L12.4407 4.8389C12.4393 5.2351 12.6206 5.6096 12.9265 5.8392L13.0014 5.8959C13.3227 6.1374 13.7412 6.2067 14.1171 6.0807L14.3544 6.0016C14.7583 5.8672 15.188 5.9001 15.5667 6.094C15.9552 6.2928 16.2422 6.6351 16.3738 7.0586L16.9246 8.8233C17.1906 9.6759 16.73 10.5957 15.8992 10.8736L15.7585 10.9205C15.3553 11.0563 15.0382 11.3923 14.9116 11.8207C14.7954 12.2134 14.8626 12.6453 15.0928 12.9771L15.2748 13.2396C15.7746 13.962 15.615 14.9756 14.9193 15.4999L13.4766 16.5891C13.1302 16.8509 12.7053 16.9566 12.279 16.8887C11.8492 16.8194 11.4741 16.5814 11.2228 16.2188L11.1402 16.0984C10.8952 15.7456 10.5032 15.5314 10.0924 15.5545C9.68078 15.5657 9.3252 15.761 9.09282 16.0914L8.93113 16.321C8.67774 16.6801 8.30187 16.9146 7.8742 16.9818C7.7923 16.9944 7.71111 17 7.63061 17ZM10.001 8.94994C9.42216 8.94994 8.95109 9.42104 8.95109 9.99994C8.95109 10.5788 9.42216 11.0499 10.001 11.0499C10.5799 11.0499 11.051 10.5788 11.051 9.99994C11.051 9.42104 10.5799 8.94994 10.001 8.94994ZM10.0008 12.4499C8.64984 12.4499 7.55091 11.3509 7.55091 9.99994C7.55091 8.64894 8.64984 7.54994 10.0008 7.54994C11.3517 7.54994 12.4506 8.64894 12.4506 9.99994C12.4506 11.3509 11.3517 12.4499 10.0008 12.4499Z" fill="#48464D"/>
</svg>
