<svg width="20" height="20" viewBox="0 0 20 20" fill="none" xmlns="http://www.w3.org/2000/svg">
<path fill-rule="evenodd" clip-rule="evenodd" d="M9.56244 15.6H10.4381V15.0631C10.4381 14.4086 10.8406 13.8206 11.4629 13.5637C12.1069 13.2956 12.8104 13.4272 13.2738 13.8934L13.6511 14.2721L14.2727 13.6505L13.8912 13.2697C13.4271 12.8063 13.2962 12.1035 13.5573 11.4798C13.5573 11.4798 13.558 11.4791 13.558 11.4784L13.5657 11.4588C13.8205 10.8407 14.4092 10.4375 15.0637 10.4375H15.5999V9.56249H15.0637C14.4092 9.56249 13.8205 9.15999 13.5643 8.53769C13.2948 7.89369 13.4271 7.19019 13.8933 6.72609L14.272 6.34879L13.6511 5.72789L13.2696 6.10939C12.8062 6.57279 12.1041 6.70369 11.4804 6.44329C10.8413 6.17939 10.4381 5.59139 10.4381 4.93689V4.39999H9.56244V4.93689C9.56244 5.59139 9.15994 6.17939 8.53764 6.43629C7.89434 6.70579 7.19084 6.57349 6.72674 6.10659L6.34944 5.72789L5.72784 6.34949L6.10934 6.73029C6.57274 7.19369 6.70434 7.89649 6.44324 8.52019C6.18004 9.15929 5.59134 9.56249 4.93684 9.56249H4.39994V10.4375H4.93684C5.59134 10.4375 6.18004 10.84 6.43624 11.4623C6.70574 12.1063 6.57344 12.8098 6.10724 13.2739L5.72854 13.6512L6.34944 14.2721L6.73094 13.8906C7.19434 13.4272 7.89644 13.2963 8.52014 13.5567C9.15924 13.8206 9.56244 14.4086 9.56244 15.0631V15.6ZM10.6601 17H9.3357C8.6889 17 8.1625 16.4736 8.1625 15.8268V15.0631C8.1625 14.9602 8.0806 14.8895 8.0036 14.858C7.9028 14.8167 7.795 14.8083 7.7208 14.8804L7.1818 15.4201C6.7226 15.8779 5.9764 15.8793 5.5179 15.4201L4.5799 14.4821C4.3573 14.2595 4.2355 13.9641 4.2355 13.6491C4.2362 13.3348 4.3587 13.0394 4.582 12.8168L5.1196 12.2813C5.1931 12.2078 5.1854 12.1 5.1525 12.0223C5.1105 11.9194 5.0405 11.8375 4.9369 11.8375H4.1781C3.5285 11.8375 3 11.3097 3 10.6601V9.3357C3 8.6882 3.5264 8.1625 4.1739 8.1625H4.9369C5.0398 8.1625 5.1105 8.0799 5.142 8.0029C5.184 7.9021 5.1924 7.7936 5.1196 7.7208L4.5799 7.1818C4.1221 6.7219 4.1221 5.9757 4.5799 5.5179L5.5179 4.5799C5.7405 4.3573 6.0352 4.2355 6.3495 4.2355H6.3509C6.6652 4.2355 6.9613 4.358 7.1832 4.5813L7.7187 5.1196C7.7922 5.1938 7.9007 5.1854 7.9784 5.1525C8.0806 5.1098 8.1625 5.0398 8.1625 4.9369V4.1781C8.1625 3.5285 8.691 3 9.3406 3H10.665C11.3118 3 11.8382 3.5264 11.8382 4.1732V4.9369C11.8382 5.0398 11.9201 5.1105 11.9971 5.142C12.0986 5.184 12.2064 5.1931 12.2799 5.1196L12.8189 4.5799C13.2781 4.1221 14.0243 4.1207 14.4828 4.5799L15.4215 5.5186C15.6441 5.7405 15.7659 6.0359 15.7652 6.3509C15.7652 6.6645 15.6427 6.9606 15.4194 7.1825L14.8811 7.7187C14.8076 7.7922 14.8153 7.9 14.8482 7.9777C14.8902 8.0806 14.9602 8.1625 15.0638 8.1625H15.8226C16.4722 8.1625 17 8.6903 17 9.3399V10.6643C17 11.3118 16.4743 11.8375 15.8268 11.8375H15.0638C14.9609 11.8375 14.8902 11.9201 14.8587 11.9971C14.858 11.9978 14.8496 12.0188 14.8489 12.0202C14.8167 12.0979 14.8083 12.2064 14.8811 12.2792L15.4208 12.8182C15.8786 13.2781 15.8786 14.0243 15.4208 14.4821L14.4828 15.4201C14.2602 15.6427 13.9655 15.7645 13.6512 15.7645H13.6498C13.3355 15.7645 13.0394 15.642 12.8175 15.4187L12.282 14.8804C12.2085 14.8069 12.0993 14.8153 12.0223 14.8475C11.9201 14.8902 11.8382 14.9602 11.8382 15.0631V15.8219C11.8382 16.4715 11.3097 17 10.6601 17ZM10.0006 8.95C9.42174 8.95 8.95064 9.4211 8.95064 10C8.95064 10.5789 9.42174 11.05 10.0006 11.05C10.5795 11.05 11.0506 10.5789 11.0506 10C11.0506 9.4211 10.5795 8.95 10.0006 8.95ZM10.0003 12.45C8.64925 12.45 7.55025 11.351 7.55025 9.99998C7.55025 8.64898 8.64925 7.54998 10.0003 7.54998C11.3513 7.54998 12.4503 8.64898 12.4503 9.99998C12.4503 11.351 11.3513 12.45 10.0003 12.45Z" fill="#48464D"/>
</svg>
