<svg width="20" height="20" viewBox="0 0 20 20" fill="none" xmlns="http://www.w3.org/2000/svg">
<path fill-rule="evenodd" clip-rule="evenodd" d="M9.99962 3.62221L4.55518 6.82034V6.9381C4.55518 10.7876 6.55095 14.3519 9.76473 16.2401L9.99962 16.3782L10.2345 16.2401C13.4483 14.3519 15.4441 10.7876 15.4441 6.9381V6.82034L9.99962 3.62221ZM10 18C9.73633 18 9.47267 17.9318 9.23856 17.7937L9.00289 17.6548C5.29989 15.4808 3 11.3739 3 6.9381V6.82034C3 6.23643 3.30333 5.69393 3.79178 5.40563L9.23778 2.2075C9.70833 1.93138 10.2924 1.93056 10.7614 2.20669L16.2067 5.40482C16.6967 5.69393 17 6.23643 17 6.82034V6.9381C17 11.3739 14.7001 15.4808 10.9971 17.6548L10.7622 17.7929C10.5273 17.931 10.2637 18 10 18Z" fill="#48464D"/>
</svg>
