<svg width="20" height="20" viewBox="0 0 20 20" fill="none" xmlns="http://www.w3.org/2000/svg">
<path fill-rule="evenodd" clip-rule="evenodd" d="M8.1579 10.8889C5.31442 10.8889 3 13.68 3 17.1111C3 17.6018 3.32937 18 3.73684 18C4.14432 18 4.47368 17.6018 4.47368 17.1111C4.47368 14.6604 6.12642 12.6667 8.1579 12.6667C10.1894 12.6667 11.8421 14.6604 11.8421 17.1111C11.8421 17.6018 12.1715 18 12.5789 18C12.9864 18 13.3158 17.6018 13.3158 17.1111C13.3158 13.68 11.0014 10.8889 8.1579 10.8889ZM6.68408 5.55553C6.68408 6.53598 7.34503 7.33331 8.15777 7.33331C8.9705 7.33331 9.63145 6.53598 9.63145 5.55553C9.63145 4.57509 8.9705 3.77775 8.15777 3.77775C7.34503 3.77775 6.68408 4.57509 6.68408 5.55553ZM5.21039 5.55556C5.21039 3.59467 6.53228 2 8.15775 2C9.78323 2 11.1051 3.59467 11.1051 5.55556C11.1051 7.51644 9.78323 9.11111 8.15775 9.11111C6.53228 9.11111 5.21039 7.51644 5.21039 5.55556ZM17.0002 5.55556C17.0002 6.04445 16.6686 6.44445 16.2633 6.44445H15.5265V7.33334C15.5265 7.82223 15.1949 8.22223 14.7896 8.22223C14.3844 8.22223 14.0528 7.82223 14.0528 7.33334V6.44445H13.3159C12.9107 6.44445 12.5791 6.04445 12.5791 5.55556C12.5791 5.06667 12.9107 4.66667 13.3159 4.66667H14.0528V3.77778C14.0528 3.28889 14.3844 2.88889 14.7896 2.88889C15.1949 2.88889 15.5265 3.28889 15.5265 3.77778V4.66667H16.2633C16.6686 4.66667 17.0002 5.06667 17.0002 5.55556Z" fill="#48464D"/>
</svg>
