<svg width="20" height="20" viewBox="0 0 20 20" fill="none" xmlns="http://www.w3.org/2000/svg">
<path fill-rule="evenodd" clip-rule="evenodd" d="M10.0003 3C9.51901 3 9.12526 3.37059 9.12526 3.82353V16.1765C9.12526 16.6294 9.51901 17 10.0003 17C10.4815 17 10.8753 16.6294 10.8753 16.1765V3.82353C10.8753 3.37059 10.4815 3 10.0003 3ZM16.125 9.58824C15.6438 9.58824 15.25 9.95883 15.25 10.4118V16.1765C15.25 16.6294 15.6438 17 16.125 17C16.6063 17 17 16.6294 17 16.1765V10.4118C17 9.95883 16.6063 9.58824 16.125 9.58824ZM3 7.11765C3 6.66471 3.39375 6.29412 3.875 6.29412C4.35625 6.29412 4.75 6.66471 4.75 7.11765V16.1765C4.75 16.6294 4.35625 17 3.875 17C3.39375 17 3 16.6294 3 16.1765V7.11765Z" fill="#48464D"/>
</svg>
