<svg width="20" height="20" viewBox="0 0 20 20" fill="none" xmlns="http://www.w3.org/2000/svg">
<path fill-rule="evenodd" clip-rule="evenodd" d="M16.1248 3C15.6436 3 15.2498 3.37059 15.2498 3.82353V16.1765C15.2498 16.6294 15.6436 17 16.1248 17C16.6061 17 16.9998 16.6294 16.9998 16.1765V3.82353C16.9998 3.37059 16.6061 3 16.1248 3ZM10.0004 6.29411C9.51916 6.29411 9.12541 6.6647 9.12541 7.11764V16.1765C9.12541 16.6294 9.51916 17 10.0004 17C10.4817 17 10.8754 16.6294 10.8754 16.1765V7.11764C10.8754 6.6647 10.4817 6.29411 10.0004 6.29411ZM3 10.4118C3 9.95883 3.39375 9.58824 3.875 9.58824C4.35625 9.58824 4.75 9.95883 4.75 10.4118V16.1765C4.75 16.6294 4.35625 17 3.875 17C3.39375 17 3 16.6294 3 16.1765V10.4118Z" fill="#48464D"/>
</svg>
