<svg width="20" height="20" viewBox="0 0 20 20" fill="none" xmlns="http://www.w3.org/2000/svg">
<path fill-rule="evenodd" clip-rule="evenodd" d="M16.1252 9.12501H10.8752V3.875C10.8752 3.39113 10.4832 3 10.0002 3C9.51716 3 9.12516 3.39113 9.12516 3.875V9.12501H3.87515C3.39215 9.12501 3.00015 9.51613 3.00015 10C3.00015 10.4839 3.39215 10.875 3.87515 10.875H9.12516V16.125C9.12516 16.6089 9.51716 17 10.0002 17C10.4832 17 10.8752 16.6089 10.8752 16.125V10.875H16.1252C16.6082 10.875 17.0002 10.4839 17.0002 10C17.0002 9.51613 16.6082 9.12501 16.1252 9.12501Z" fill="#48464D"/>
</svg>
