<svg width="20" height="20" viewBox="0 0 20 20" fill="none" xmlns="http://www.w3.org/2000/svg">
<path fill-rule="evenodd" clip-rule="evenodd" d="M9.99999 11.3097C10.1493 11.3097 10.2994 11.3534 10.4293 11.4392L14.2248 13.9584L9.99999 5.48845L5.77521 13.9584L9.57067 11.4392C9.70055 11.3534 9.85066 11.3097 9.99999 11.3097ZM16.2219 17C16.0726 17 15.9232 16.9571 15.7926 16.8706L9.99982 13.0243L4.20707 16.8706C3.91308 17.0647 3.52576 17.0382 3.2621 16.8043C2.99844 16.5696 2.92455 16.1875 3.08166 15.8718L9.30372 3.39648C9.56738 2.86784 10.4323 2.86784 10.6959 3.39648L16.918 15.8718C17.0751 16.1875 17.0012 16.5696 16.7375 16.8043C16.5913 16.9337 16.407 17 16.2219 17Z" fill="#48464D"/>
</svg>
