<svg width="20" height="20" viewBox="0 0 20 20" fill="none" xmlns="http://www.w3.org/2000/svg">
<path fill-rule="evenodd" clip-rule="evenodd" d="M6.78491 7.74393L10.8278 8.56602C11.1343 8.62746 11.3731 8.86623 11.4353 9.17267L12.2566 13.2155L14.9929 5.00778L6.78491 7.74393ZM12.0746 17C12.0582 17 12.0427 16.9992 12.0271 16.9984C11.6756 16.9774 11.3824 16.7223 11.3116 16.3778L10.0135 9.98696L3.62319 8.6881C3.27785 8.61811 3.02274 8.32489 3.00174 7.97334C2.97996 7.6218 3.19774 7.29981 3.53141 7.18859L15.9759 3.0408C16.2559 2.94592 16.5639 3.0198 16.7724 3.22824C16.9808 3.43668 17.0532 3.74468 16.9606 4.02467L12.8119 16.4688C12.7054 16.7877 12.4075 17 12.0746 17Z" fill="#48464D"/>
</svg>
