<svg width="20" height="20" viewBox="0 0 20 20" fill="none" xmlns="http://www.w3.org/2000/svg">
<path fill-rule="evenodd" clip-rule="evenodd" d="M17 9.00015H5.135L8.768 4.64015C9.122 4.21615 9.064 3.58515 8.64 3.23215C8.215 2.87815 7.585 2.93615 7.232 3.36015L2.232 9.36015C2.193 9.40715 2.173 9.46215 2.144 9.51415C2.12 9.55615 2.091 9.59215 2.073 9.63815C2.028 9.75315 2.001 9.87415 2.001 9.99615C2.001 9.99715 2 9.99915 2 10.0002C2 10.0012 2.001 10.0032 2.001 10.0042C2.001 10.1262 2.028 10.2472 2.073 10.3622C2.091 10.4082 2.12 10.4442 2.144 10.4862C2.173 10.5382 2.193 10.5932 2.232 10.6402L7.232 16.6402C7.43 16.8772 7.714 17.0002 8 17.0002C8.226 17.0002 8.453 16.9242 8.64 16.7682C9.064 16.4152 9.122 15.7842 8.768 15.3602L5.135 11.0002H17C17.552 11.0002 18 10.5522 18 10.0002C18 9.44815 17.552 9.00015 17 9.00015Z" fill="#48464D"/>
</svg>
