<svg width="20" height="20" viewBox="0 0 20 20" fill="none" xmlns="http://www.w3.org/2000/svg">
<path d="M9.99999 17C9.09658 17 8.31402 16.426 8.05792 15.572L7.21139 12.772L4.41565 11.904C3.5691 11.638 3 10.875 3 10C3 9.12499 3.5691 8.36203 4.41565 8.09599L7.21139 7.228L8.05792 4.428C8.31402 3.574 9.09658 3 9.99999 3C10.9035 3 11.686 3.574 11.9421 4.428L12.7887 7.228L15.5844 8.09599C16.4309 8.36203 17 9.12499 17 10C17 10.875 16.4309 11.638 15.5844 11.904L12.7887 12.772L11.9421 15.572C11.686 16.426 10.9035 17 9.99999 17ZM9.99999 4.414C9.72969 4.414 9.50914 4.575 9.43091 4.827L8.42072 8.14501C8.38518 8.27101 8.2856 8.36899 8.15755 8.40403L4.83537 9.43999C4.58639 9.51703 4.42276 9.73399 4.42276 10C4.42276 10.266 4.58639 10.476 4.83537 10.56L8.15755 11.596C8.2856 11.638 8.37804 11.729 8.42072 11.855L9.43091 15.173C9.50914 15.425 9.72969 15.593 9.99999 15.593C10.2704 15.593 10.4908 15.432 10.5691 15.18L11.5793 11.862C11.6149 11.736 11.7144 11.638 11.8425 11.603L15.1646 10.567C15.4137 10.49 15.5773 10.266 15.5773 10.007C15.5773 9.74803 15.4137 9.53101 15.1646 9.44701L11.8425 8.41099C11.7144 8.36899 11.6219 8.27803 11.5793 8.15203L10.5691 4.834C10.4908 4.582 10.2704 4.414 9.99999 4.414Z" fill="#48464D"/>
</svg>
