<svg width="20" height="20" viewBox="0 0 20 20" fill="none" xmlns="http://www.w3.org/2000/svg">
<path d="M11.982 9.39352H8.018V10.6068H11.982V9.39352Z" fill="#8B7BFF"/>
<path d="M11.982 7.2113H8.018V8.42461H11.982V7.2113Z" fill="#8B7BFF"/>
<path d="M4.16737 3.20895H6.20816V2H3V5.33444H4.16737V3.20895Z" fill="#48464D"/>
<path d="M4.16737 14.6656H3V18H6.20816V16.791H4.16737V14.6656Z" fill="#48464D"/>
<path d="M13.7918 3.20895H15.8326V5.33444H17V2H13.7918V3.20895Z" fill="#48464D"/>
<path d="M15.8326 16.791H13.7918V18H17V14.6656H15.8326V16.791Z" fill="#48464D"/>
<path d="M11.982 11.5757H8.018V12.7891H11.982V11.5757Z" fill="#8B7BFF"/>
<path d="M14.9004 14.609V5.39128C14.9004 5.06394 14.7828 4.78025 14.5519 4.54021C14.3209 4.30016 14.048 4.17796 13.7331 4.17796H6.26695C5.95201 4.17796 5.67906 4.30016 5.44811 4.54021C5.21716 4.78025 5.09958 5.06394 5.09958 5.39128V14.6046C5.09958 14.932 5.21716 15.2156 5.44811 15.4557C5.67906 15.6957 5.95201 15.8179 6.26695 15.8179H13.7331C14.048 15.8179 14.3209 15.6957 14.5519 15.4557C14.7828 15.2156 14.9004 14.932 14.9004 14.6046V14.609ZM13.7331 14.609H6.26695V5.39128H13.7331V14.6046V14.609Z" fill="#48464D"/>
</svg>
