<svg width="20" height="20" viewBox="0 0 20 20" fill="none" xmlns="http://www.w3.org/2000/svg">
<path d="M9.99997 17L9.51979 16.5267C9.0191 16.0328 4.60162 11.6223 4.60162 8.66583C4.60162 5.43508 6.9201 3 9.99997 3C13.0798 3 15.3983 5.43508 15.3983 8.66583C15.3983 11.6154 10.9808 16.0328 10.4801 16.5267L9.99997 17ZM9.99997 4.37874C7.70209 4.37874 5.9735 6.22391 5.9735 8.67271C5.9735 10.4699 8.55262 13.5429 9.99997 15.0656C11.4541 13.5429 14.0264 10.4699 14.0264 8.67271C14.0264 6.22391 12.2978 4.37874 9.99997 4.37874Z" fill="#48464D"/>
<path d="M10 10.7991C8.62815 10.7991 7.51691 9.68104 7.51691 8.31606C7.51691 6.95102 8.63497 5.83295 10 5.83295C11.3651 5.83295 12.4831 6.94417 12.4831 8.31606C12.4831 9.68792 11.3719 10.7991 10 10.7991ZM10 6.855C9.19746 6.855 8.54584 7.50664 8.54584 8.30918C8.54584 9.11173 9.19746 9.76336 10 9.76336C10.8026 9.76336 11.4542 9.11173 11.4542 8.30918C11.4542 7.50664 10.8026 6.855 10 6.855Z" fill="#8B7BFF"/>
</svg>
