<svg width="20" height="20" viewBox="0 0 20 20" fill="none" xmlns="http://www.w3.org/2000/svg">
<path d="M13.336 7.19633H6.66803V8.36405H13.336V7.19633Z" fill="#8B7BFF"/>
<path d="M14.888 4.39873H11.676C11.592 3.9871 11.392 3.65106 11.08 3.39064C10.768 3.13021 10.408 3 10 3C9.592 3 9.232 3.13021 8.92 3.39064C8.608 3.65106 8.408 3.9871 8.324 4.39873H5.112C4.808 4.39873 4.544 4.51214 4.328 4.74317C4.112 4.96999 4 5.24722 4 5.56645V15.8323C4 16.1515 4.108 16.4287 4.328 16.6556C4.544 16.8824 4.808 17 5.112 17H14.888C15.192 17 15.456 16.8866 15.672 16.6556C15.888 16.4287 16 16.1515 16 15.8323V5.56225C16 5.24302 15.892 4.9658 15.672 4.73897C15.456 4.51215 15.192 4.39453 14.888 4.39453V4.39873ZM9.608 4.19711C9.716 4.0837 9.848 4.0249 10 4.0249C10.152 4.0249 10.284 4.0837 10.392 4.19711C10.5 4.31052 10.556 4.44914 10.556 4.60875C10.556 4.76837 10.5 4.90698 10.392 5.0204C10.284 5.13381 10.152 5.19261 10 5.19261C9.848 5.19261 9.716 5.13381 9.608 5.0204C9.5 4.90698 9.444 4.76837 9.444 4.60875C9.444 4.44914 9.5 4.31052 9.608 4.19711ZM14.888 15.8323H5.112V5.56225H14.888V15.8281V15.8323Z" fill="#48464D"/>
<path d="M13.336 10.1156H6.66803V11.2833H13.336V10.1156Z" fill="#8B7BFF"/>
<path d="M11.2561 13.0306H6.66803V14.1983H11.2561V13.0306Z" fill="#8B7BFF"/>
</svg>
