<svg width="20" height="20" viewBox="0 0 20 20" fill="none" xmlns="http://www.w3.org/2000/svg">
<path d="M16.3 9.30001H3.70001V10.7H16.3V9.30001Z" fill="#8B7BFF"/>
<path d="M10 3C6.14301 3 3 6.143 3 10C3 13.857 6.14301 17 10 17C13.857 17 17 13.857 17 10C17 6.143 13.857 3 10 3ZM9.3 4.652V15.355C8.334 14.676 7.45901 12.667 7.45901 10.007C7.45901 7.34701 8.334 5.331 9.3 4.659V4.652ZM10.7 15.355V4.652C11.666 5.331 12.541 7.34 12.541 10C12.541 12.66 11.666 14.676 10.7 15.348V15.355ZM4.40001 10.007C4.40001 7.97701 5.48501 6.206 7.10901 5.219C6.45801 6.465 6.066 8.13103 6.066 10.007C6.066 11.883 6.465 13.549 7.10901 14.795C5.49201 13.815 4.40001 12.037 4.40001 10.007ZM12.891 14.795C13.542 13.549 13.934 11.883 13.934 10.007C13.934 8.13103 13.535 6.465 12.891 5.219C14.508 6.199 15.6 7.97701 15.6 10.007C15.6 12.037 14.515 13.808 12.891 14.795Z" fill="#48464D"/>
</svg>
