<svg width="20" height="20" viewBox="0 0 20 20" fill="none" xmlns="http://www.w3.org/2000/svg">
<path d="M5.51412 8.57721L6.87594 9.15268C7.0389 8.82718 7.20767 8.51329 7.38226 8.211C7.55684 7.90876 7.74893 7.60647 7.95844 7.30422L6.9807 7.11239L5.51412 8.57721ZM7.99334 10.0246L9.98368 11.9952C10.4726 11.8092 10.9963 11.5243 11.555 11.1407C12.1137 10.7571 12.6375 10.3211 13.1263 9.83278C13.9411 9.01899 14.5784 8.11509 15.0381 7.12111C15.4979 6.12712 15.6986 5.2116 15.6405 4.37455C14.8024 4.31642 13.8829 4.51696 12.8819 4.97618C11.8809 5.43539 10.9731 6.0719 10.1583 6.88569C9.66942 7.37397 9.23292 7.8971 8.84886 8.45518C8.46473 9.01319 8.17956 9.53634 7.99334 10.0246ZM11.1011 8.8911C10.8333 8.62372 10.6995 8.2953 10.6995 7.90583C10.6995 7.51638 10.8333 7.18796 11.1011 6.92057C11.3688 6.65318 11.7005 6.51948 12.0963 6.51948C12.492 6.51948 12.8237 6.65318 13.0914 6.92057C13.3591 7.18796 13.493 7.51638 13.493 7.90583C13.493 8.2953 13.3591 8.62372 13.0914 8.8911C12.8237 9.15854 12.492 9.29222 12.0963 9.29222C11.7005 9.29222 11.3688 9.15854 11.1011 8.8911ZM11.4328 14.4889L12.8993 13.024L12.7073 12.0475C12.4047 12.2567 12.1021 12.4457 11.7994 12.6142C11.4968 12.7828 11.1826 12.9484 10.8566 13.1113L11.4328 14.4889ZM16.8975 3.10154C17.1186 4.50824 16.9819 5.87716 16.4872 7.2083C15.9926 8.53942 15.14 9.80952 13.9295 11.0186L14.2786 12.745C14.3252 12.9776 14.3135 13.2042 14.2437 13.4251C14.1739 13.646 14.0575 13.8378 13.8945 14.0006L10.9614 16.9303L9.49481 13.4949L6.5093 10.5129L3.06984 9.04804L5.98552 6.11839C6.14848 5.95564 6.34344 5.83938 6.57041 5.76963C6.79737 5.69987 7.02726 5.68825 7.26004 5.73475L8.98851 6.08352C10.199 4.87445 11.4677 4.01996 12.7946 3.52006C14.1215 3.02016 15.4891 2.88065 16.8975 3.10154ZM4.30944 12.7276C4.71682 12.3207 5.21441 12.1143 5.8022 12.1085C6.39 12.1027 6.88758 12.3033 7.29496 12.7101C7.70236 13.1171 7.90313 13.614 7.89732 14.2012C7.89151 14.7882 7.68488 15.2852 7.27751 15.6921C6.98652 15.9827 6.50057 16.2327 5.81966 16.442C5.13875 16.6513 4.19887 16.8373 3 17C3.16296 15.8026 3.34919 14.8638 3.5587 14.1837C3.76821 13.5036 4.01845 13.0182 4.30944 12.7276ZM5.30461 13.7041C5.18822 13.8204 5.07182 14.0325 4.95543 14.3406C4.83904 14.6487 4.75756 14.9597 4.711 15.2736C5.02527 15.2271 5.33663 15.1486 5.64507 15.0382C5.95351 14.9278 6.16593 14.8144 6.28233 14.6981C6.422 14.5586 6.49766 14.3901 6.5093 14.1924C6.52094 13.9948 6.45692 13.8262 6.31725 13.6867C6.17758 13.5472 6.0088 13.4803 5.81093 13.4862C5.61306 13.492 5.44429 13.5646 5.30461 13.7041Z" fill="#48464D"/>
</svg>
