<svg width="20" height="20" viewBox="0 0 20 20" fill="none" xmlns="http://www.w3.org/2000/svg">
<path fill-rule="evenodd" clip-rule="evenodd" d="M11.8633 16C11.8097 16 11.7545 15.9978 11.6993 15.9925C10.9953 15.9273 10.4433 15.4616 10.2913 14.8054L8.14486 5.51233L5.93444 10.2983C5.80724 10.5728 5.51843 10.7505 5.20003 10.7505H2.80001C2.3576 10.7505 2 10.4146 2 10.0006C2 9.58591 2.3576 9.25069 2.80001 9.25069H4.67522L6.68004 4.90939C6.96405 4.29745 7.58965 3.94124 8.30086 4.00798C9.00486 4.07323 9.55687 4.53893 9.70887 5.19511L11.8553 14.4882L14.0657 9.70215C14.1929 9.42768 14.4809 9.25069 14.8001 9.25069H17.2001C17.6425 9.25069 18.0001 9.58591 18.0001 10.0006C18.0001 10.4146 17.6425 10.7505 17.2001 10.7505H15.3249L13.3201 15.0911C13.0585 15.6558 12.4977 16 11.8633 16Z" fill="#48464D"/>
</svg>
