<svg width="20" height="20" viewBox="0 0 20 20" fill="none" xmlns="http://www.w3.org/2000/svg">
<path d="M8.07399 3.65302C8.07399 3.29247 8.36628 3.00018 8.72683 3.00018H11.2638C11.6243 3.00018 11.9166 3.29247 11.9166 3.65302C11.9166 4.01358 11.6243 4.30586 11.2638 4.30586H8.72683C8.36628 4.30586 8.07399 4.01358 8.07399 3.65302Z" fill="#48464D"/>
<path d="M6.84243 3.64265C6.85336 4.00303 6.57006 4.30404 6.20967 4.31496C5.58817 4.33379 5.32927 4.38303 5.14484 4.47788L5.13824 4.48128C4.85834 4.62123 4.62548 4.85484 4.4675 5.15611C4.37326 5.34042 4.32427 5.59966 4.3055 6.21913C4.29458 6.57952 3.99358 6.86282 3.63319 6.8519C3.2728 6.84098 2.98951 6.53998 3.00043 6.17959C3.01918 5.56081 3.0639 5.03044 3.30731 4.55715L3.30929 4.55328C3.58297 4.02972 4.00631 3.58831 4.55107 3.31502C5.02351 3.07314 5.55282 3.02858 6.17012 3.00988C6.53051 2.99896 6.83151 3.28226 6.84243 3.64265Z" fill="#48464D"/>
<path d="M13.1482 3.64265C13.1591 3.28226 13.4601 2.99896 13.8205 3.00988C14.4378 3.02858 14.9671 3.07314 15.4395 3.31502C15.9843 3.58831 16.4076 4.02973 16.6813 4.55329L16.6833 4.55714C16.9267 5.03044 16.9714 5.56081 16.9902 6.17959C17.0011 6.53998 16.7178 6.84098 16.3574 6.8519C15.997 6.86282 15.696 6.57952 15.6851 6.21913C15.6663 5.59966 15.6173 5.34043 15.5231 5.15611C15.3651 4.85484 15.1323 4.62119 14.8524 4.48124L14.8457 4.47792C14.6613 4.38307 14.4024 4.33379 13.7809 4.31496C13.4205 4.30404 13.1372 4.00303 13.1482 3.64265Z" fill="#48464D"/>
<path d="M3.65297 8.07407C4.01352 8.07407 4.3058 8.36635 4.3058 8.72691V11.2638C4.3058 11.6244 4.01352 11.9167 3.65297 11.9167C3.29241 11.9167 3.00013 11.6244 3.00013 11.2638V8.72691C3.00013 8.36635 3.29241 8.07407 3.65297 8.07407Z" fill="#48464D"/>
<path d="M16.3376 8.07407C16.6982 8.07407 16.9905 8.36635 16.9905 8.72691V11.2638C16.9905 11.6244 16.6982 11.9167 16.3376 11.9167C15.9771 11.9167 15.6848 11.6244 15.6848 11.2638V8.72691C15.6848 8.36635 15.9771 8.07407 16.3376 8.07407Z" fill="#48464D"/>
<path d="M16.3668 13.1483C16.7272 13.1592 17.0105 13.4602 16.9996 13.8206C16.9808 14.4393 16.9361 14.9697 16.6927 15.443L16.6907 15.4469C16.417 15.9705 15.9936 16.4119 15.4488 16.6852C14.9764 16.927 14.4471 16.9716 13.8299 16.9903C13.4695 17.0012 13.1685 16.7179 13.1576 16.3575C13.1466 15.9971 13.4299 15.6961 13.7903 15.6852C14.4118 15.6664 14.6707 15.6171 14.8551 15.5223L14.8617 15.5189C15.1417 15.3789 15.3745 15.1453 15.5325 14.844C15.6267 14.6597 15.6757 14.4005 15.6945 13.781C15.7054 13.4206 16.0064 13.1373 16.3668 13.1483Z" fill="#48464D"/>
<path d="M3.63319 13.1576C3.99358 13.1467 4.29458 13.43 4.3055 13.7904C4.32434 14.4119 4.37358 14.6708 4.46843 14.8553L4.47182 14.8618C4.61177 15.1418 4.84538 15.3746 5.14665 15.5326C5.33097 15.6268 5.5902 15.6758 6.20967 15.6946C6.57006 15.7055 6.85336 16.0065 6.84243 16.3669C6.83151 16.7273 6.53051 17.0106 6.17012 16.9997C5.55135 16.9809 5.02098 16.9362 4.54769 16.6928L4.54383 16.6908C4.02027 16.4171 3.57885 15.9938 3.30557 15.449C3.06368 14.9766 3.01913 14.4473 3.00043 13.83C2.98951 13.4696 3.2728 13.1686 3.63319 13.1576Z" fill="#48464D"/>
<path d="M8.07399 16.3377C8.07399 15.9772 8.36628 15.6849 8.72683 15.6849H11.2638C11.6243 15.6849 11.9166 15.9772 11.9166 16.3377C11.9166 16.6983 11.6243 16.9906 11.2638 16.9906H8.72683C8.36628 16.9906 8.07399 16.6983 8.07399 16.3377Z" fill="#48464D"/>
</svg>
