<svg width="20" height="20" viewBox="0 0 20 20" fill="none" xmlns="http://www.w3.org/2000/svg">
<path fill-rule="evenodd" clip-rule="evenodd" d="M8.39979 4.94445C8.39979 4.72978 8.57899 4.55556 8.79979 4.55556H11.1998C11.4206 4.55556 11.5998 4.72978 11.5998 4.94445V6.11111H8.39979V4.94445ZM7.59959 15.4444H12.3996V7.66666H7.59959V15.4444ZM16.4 14.6667C16.4 15.0952 16.0408 15.4444 15.6 15.4444H14V7.66666H15.6C16.0408 7.66666 16.4 8.01588 16.4 8.44444V14.6667ZM3.6001 8.44444V14.6667C3.6001 15.0952 3.9593 15.4444 4.4001 15.4444H6.0001V7.66666H4.4001C3.9593 7.66666 3.6001 8.01588 3.6001 8.44444ZM15.6 6.11111H13.2V4.94444C13.2 3.87267 12.3024 3 11.2 3H8.8C7.6976 3 6.8 3.87267 6.8 4.94444V6.11111H4.4C3.0768 6.11111 2 7.158 2 8.44444V14.6667C2 15.9531 3.0768 17 4.4 17H15.6C16.9232 17 18 15.9531 18 14.6667V8.44444C18 7.158 16.9232 6.11111 15.6 6.11111Z" fill="#48464D"/>
</svg>
