<svg width="20" height="20" viewBox="0 0 20 20" fill="none" xmlns="http://www.w3.org/2000/svg">
<path fill-rule="evenodd" clip-rule="evenodd" d="M13.9607 4.32023L17.8229 9.4627C18.0621 9.78067 18.0581 10.2349 17.8141 10.5495L13.8143 15.6919C13.6559 15.8951 13.4287 15.9996 13.1991 15.9996C13.0183 15.9996 12.8375 15.9345 12.6871 15.8016C12.3479 15.4982 12.3023 14.9574 12.5847 14.5932L16.1662 9.99066L12.7135 5.39501C12.4375 5.02561 12.4911 4.4865 12.8359 4.18996C13.1799 3.89169 13.6831 3.95169 13.9607 4.32023ZM6.18527 4.30866C6.46766 3.94526 6.97084 3.8964 7.31242 4.19895C7.65161 4.50236 7.69721 5.04232 7.41482 5.40657L3.83336 10.0091L7.28602 14.6056C7.56201 14.9741 7.50841 15.5132 7.16363 15.8106C7.01643 15.9375 6.83884 16.0001 6.66285 16.0001C6.42926 16.0001 6.19727 15.8903 6.03887 15.6804L2.17662 10.5379C1.93743 10.2191 1.94143 9.76481 2.18542 9.45112L6.18527 4.30866Z" fill="#48464D"/>
</svg>
