<svg width="20" height="20" viewBox="0 0 20 20" fill="none" xmlns="http://www.w3.org/2000/svg">
<path fill-rule="evenodd" clip-rule="evenodd" d="M15.2496 12.2986C14.9031 12.456 14.2215 12.6666 13.0621 12.6666C12.0786 12.6666 11.2238 12.3262 10.319 11.9662C9.30227 11.5618 8.25052 11.1431 6.93715 11.1431C6.01227 11.1431 5.29565 11.256 4.74965 11.408V9.99998V4.14753C5.09615 3.9902 5.77952 3.77776 6.93715 3.77776C7.92065 3.77776 8.77552 4.1182 9.68027 4.4782C10.697 4.88264 11.7488 5.30131 13.0621 5.30131C13.8829 5.30131 14.6161 5.21153 15.2496 5.03464V12.2986ZM16.3593 3.49332C15.9551 3.19643 15.4318 3.11198 14.9602 3.26843C14.4562 3.43465 13.7999 3.52354 13.0623 3.52354C12.0788 3.52354 11.2239 3.1831 10.3192 2.8231C9.30244 2.41865 8.25069 1.99998 6.93732 1.99998C4.41119 1.99998 3.43294 2.84621 3.26232 3.01687C3.09432 3.1831 2.99982 3.41243 2.99982 3.65065V9.99998V12.7938V17.1111C2.99982 17.6027 3.39094 18 3.87482 18C4.35869 18 4.74982 17.6027 4.74982 17.1111V13.2907C5.09544 13.1342 5.77619 12.9209 6.93732 12.9209C7.92082 12.9209 8.77569 13.2613 9.68044 13.6213C10.6972 14.0258 11.7489 14.4444 13.0623 14.4444C14.6452 14.4444 15.6199 14.1084 16.1607 13.8267C16.6787 13.5538 16.9998 13.024 16.9998 12.4435V4.76087C16.9998 4.2631 16.7609 3.78932 16.3593 3.49332Z" fill="#48464D"/>
</svg>
