<svg width="20" height="20" viewBox="0 0 20 20" fill="none" xmlns="http://www.w3.org/2000/svg">
<path fill-rule="evenodd" clip-rule="evenodd" d="M13.1108 16.399H15.4364L15.4442 9.69411L9.99818 3.93698L4.55996 9.66129L4.55529 16.399H6.88863V10.7956C6.88863 10.3529 7.23629 9.99509 7.6664 9.99509H12.3331C12.7624 9.99509 13.1108 10.3529 13.1108 10.7956V16.399ZM11.5555 16.399H8.44435V11.5961H11.5555V16.399ZM16.552 8.54221L10.5561 2.23114C10.2629 1.92295 9.73711 1.92295 9.44389 2.23114L3.44722 8.54301C3.16333 8.84319 3 9.26265 3 9.69411V16.399C3 17.282 3.65878 18 4.46844 18H7.66667H12.3333H15.5308C16.3404 18 17 17.282 17 16.399V9.69411C17 9.26265 16.8367 8.84319 16.552 8.54221Z" fill="#48464D"/>
</svg>
