<svg width="20" height="20" viewBox="0 0 20 20" fill="none" xmlns="http://www.w3.org/2000/svg">
<path fill-rule="evenodd" clip-rule="evenodd" d="M14.6668 15.4445H10.7779V8.44445H15.4446V14.6667C15.4446 15.096 15.0954 15.4445 14.6668 15.4445ZM4.5554 14.6667V8.44445H9.22207V15.4445H5.33318C4.90463 15.4445 4.5554 15.096 4.5554 14.6667ZM5.33318 4.55555H14.6665C15.0951 4.55555 15.4443 4.90399 15.4443 5.33332V6.88888H4.5554V5.33332C4.5554 4.90399 4.90463 4.55555 5.33318 4.55555ZM14.6667 3H5.33333C4.04689 3 3 4.04689 3 5.33333V7.52511V7.80822V14.6667C3 15.9531 4.04689 17 5.33333 17H14.6667C15.9531 17 17 15.9531 17 14.6667V7.80822V7.52511V5.33333C17 4.04689 15.9531 3 14.6667 3Z" fill="#48464D"/>
</svg>
