<svg width="20" height="20" viewBox="0 0 20 20" fill="none" xmlns="http://www.w3.org/2000/svg">
<path fill-rule="evenodd" clip-rule="evenodd" d="M16.6667 11.6667C16.6667 12.1258 16.2934 12.5 15.8334 12.5H10.0725H9.92752H4.16669C3.70669 12.5 3.33335 12.1258 3.33335 11.6667V5C3.33335 4.54083 3.70669 4.16667 4.16669 4.16667H15.8334C16.2934 4.16667 16.6667 4.54083 16.6667 5V11.6667ZM15.6002 3H4.40018C3.07698 3 2.00018 4.04689 2.00018 5.33333V11.5556C2.00018 12.842 3.07698 13.8889 4.40018 13.8889H9.20018V15.4444H6.00018C5.56018 15.4444 5.20018 15.7944 5.20018 16.2222C5.20018 16.65 5.56018 17 6.00018 17H14.0002C14.4402 17 14.8002 16.65 14.8002 16.2222C14.8002 15.7944 14.4402 15.4444 14.0002 15.4444H10.8002V13.8889H15.6002C16.9234 13.8889 18.0002 12.842 18.0002 11.5556V5.33333C18.0002 4.04689 16.9234 3 15.6002 3Z" fill="#48464D"/>
</svg>
