<svg width="20" height="20" viewBox="0 0 20 20" fill="none" xmlns="http://www.w3.org/2000/svg">
<path fill-rule="evenodd" clip-rule="evenodd" d="M10 15.4444H13.1111V7.66667H10V15.4444ZM5.33295 4.55557C4.9044 4.55557 4.55518 4.9048 4.55518 5.33335V14.6667C4.55518 15.0952 4.9044 15.4445 5.33295 15.4445H14.6663C15.0948 15.4445 15.4441 15.0952 15.4441 14.6667V5.33335C15.4441 4.9048 15.0948 4.55557 14.6663 4.55557H5.33295ZM14.6667 17H5.33333C4.04689 17 3 15.9531 3 14.6667V5.33333C3 4.04689 4.04689 3 5.33333 3H14.6667C15.9531 3 17 4.04689 17 5.33333V14.6667C17 15.9531 15.9531 17 14.6667 17Z" fill="#48464D"/>
</svg>
