<svg width="20" height="20" viewBox="0 0 20 20" fill="none" xmlns="http://www.w3.org/2000/svg">
<path fill-rule="evenodd" clip-rule="evenodd" d="M8.88086 7.23125C9.33663 7.68628 9.33663 8.42599 8.88086 8.88101C8.42508 9.33682 7.68698 9.33682 7.2312 8.88101C6.77543 8.42599 6.77543 7.68628 7.2312 7.23125C7.68698 6.77545 8.42508 6.77545 8.88086 7.23125ZM5.20416 10.6942L9.89567 15.3868L15.3852 9.89694L10.6937 5.20434L4.63872 4.63964L5.20416 10.6942ZM9.89584 17C9.53418 17 9.1733 16.8623 8.89719 16.5878L3.90624 11.5957C3.7779 11.4681 3.69857 11.2986 3.68146 11.1181L3.00324 3.85014C2.98224 3.6199 3.06391 3.392 3.22802 3.22788C3.39213 3.06376 3.61924 2.98053 3.85024 3.00387L11.1177 3.68213C11.2982 3.69846 11.4669 3.7778 11.5953 3.90614L16.5862 8.89743C16.853 9.16422 17 9.51891 17 9.89693C17 10.2749 16.853 10.6296 16.5862 10.8964L10.8953 16.587C10.6199 16.8623 10.2583 17 9.89584 17Z" fill="#48464D"/>
</svg>
