<svg width="20" height="20" viewBox="0 0 20 20" fill="none" xmlns="http://www.w3.org/2000/svg">
<path fill-rule="evenodd" clip-rule="evenodd" d="M15.4441 15.3333C15.4441 15.8231 15.0956 16.2222 14.6663 16.2222H13.1107V13.5555C13.1107 13.0649 12.7631 12.6666 12.333 12.6666H7.66629C7.23618 12.6666 6.88851 13.0649 6.88851 13.5555V16.2222H5.33295C4.90362 16.2222 4.55518 15.8231 4.55518 15.3333V4.66664C4.55518 4.17686 4.90362 3.77775 5.33295 3.77775H6.88851V8.2222C6.88851 8.71286 7.23618 9.11109 7.66629 9.11109H10.7774C11.2075 9.11109 11.5552 8.71286 11.5552 8.2222C11.5552 7.73153 11.2075 7.33331 10.7774 7.33331H8.44406V3.77775H10.9112C11.1157 3.77775 11.3156 3.87286 11.4611 4.0382L15.2162 8.32975C15.3632 8.49775 15.4441 8.72175 15.4441 8.95909V15.3333ZM8.44482 16.2222H11.5559V14.4444H8.44482V16.2222ZM16.3163 7.07289L12.5612 2.78133C12.121 2.27733 11.5346 2 10.9116 2H5.33333C4.04689 2 3 3.19644 3 4.66667V15.3333C3 16.8036 4.04689 18 5.33333 18H7.66667H12.3333H14.6667C15.9531 18 17 16.8036 17 15.3333V8.95911C17 8.24622 16.7566 7.576 16.3163 7.07289Z" fill="#48464D"/>
</svg>
