<svg width="20" height="20" viewBox="0 0 20 20" fill="none" xmlns="http://www.w3.org/2000/svg">
<path fill-rule="evenodd" clip-rule="evenodd" d="M4.40005 9.99999C4.40005 8.70779 4.84455 7.52059 5.58165 6.57209L13.4279 14.4184C12.4794 15.1562 11.2922 15.6 10 15.6C6.91235 15.6 4.40005 13.0877 4.40005 9.99999ZM15.6001 10C15.6001 11.2922 15.1556 12.4794 14.4185 13.4279L6.57223 5.5816C7.52073 4.8438 8.70793 4.4 10.0001 4.4C13.0878 4.4 15.6001 6.9123 15.6001 10ZM10.0002 3C6.14038 3 3.00018 6.1402 3.00018 10C3.00018 13.8598 6.14038 17 10.0002 17C13.86 17 17.0002 13.8598 17.0002 10C17.0002 6.1402 13.86 3 10.0002 3Z" fill="#48464D"/>
</svg>
