<svg width="20" height="20" viewBox="0 0 20 20" fill="none" xmlns="http://www.w3.org/2000/svg">
<path fill-rule="evenodd" clip-rule="evenodd" d="M16.2222 2H3.77778C3.34767 2 3 2.42071 3 2.94118V5.76471C3 6.28518 3.34767 6.70588 3.77778 6.70588C4.20789 6.70588 4.55556 6.28518 4.55556 5.76471V3.88235H9.22222V16.1176H7.66667C7.23656 16.1176 6.88889 16.5384 6.88889 17.0588C6.88889 17.5793 7.23656 18 7.66667 18H12.3333C12.7634 18 13.1111 17.5793 13.1111 17.0588C13.1111 16.5384 12.7634 16.1176 12.3333 16.1176H10.7778V3.88235H15.4444V5.76471C15.4444 6.28518 15.7921 6.70588 16.2222 6.70588C16.6523 6.70588 17 6.28518 17 5.76471V2.94118C17 2.42071 16.6523 2 16.2222 2Z" fill="#48464D"/>
</svg>
