<svg width="20" height="20" viewBox="0 0 20 20" fill="none" xmlns="http://www.w3.org/2000/svg">
<path fill-rule="evenodd" clip-rule="evenodd" d="M5.81296 14.2364C6.09696 13.8889 6.05296 13.3692 5.71536 13.0752C4.35056 11.8943 3.60016 10.3633 3.60016 8.76485C3.60016 7.16637 4.35056 5.63542 5.71536 4.45448C6.05296 4.16048 6.09696 3.64083 5.81296 3.2933C5.52736 2.94577 5.02336 2.90047 4.68496 3.19283C2.95376 4.6933 2.00016 6.67225 2.00016 8.76485C2.00016 10.8574 2.95376 12.8364 4.68496 14.3369C4.83536 14.4662 5.01776 14.5296 5.19936 14.5296C5.42736 14.5296 5.65376 14.4299 5.81296 14.2364ZM15.3155 14.3369C17.0467 12.8364 18.0003 10.8574 18.0003 8.76485C18.0003 6.67225 17.0467 4.6933 15.3155 3.19283C14.9763 2.9013 14.4731 2.94659 14.1875 3.2933C13.9035 3.64083 13.9475 4.16048 14.2851 4.45448C15.6499 5.63542 16.4003 7.16637 16.4003 8.76485C16.4003 10.3633 15.6499 11.8943 14.2851 13.0752C13.9475 13.3692 13.9035 13.8889 14.1875 14.2364C14.3467 14.4299 14.5731 14.5296 14.8011 14.5296C14.9827 14.5296 15.1651 14.4662 15.3155 14.3369ZM6.39997 8.76486C6.39997 7.78239 6.86717 6.83532 7.71517 6.10073C8.05277 5.80756 8.09677 5.28791 7.81197 4.94038C7.52797 4.59285 7.02397 4.5459 6.68477 4.84073C5.46957 5.89403 4.79997 7.28744 4.79997 8.76486C4.79997 10.2423 5.46957 11.6357 6.68477 12.689C6.83517 12.8191 7.01757 12.8825 7.19917 12.8825C7.42717 12.8825 7.65357 12.7829 7.81197 12.5893C8.09677 12.2418 8.05277 11.7222 7.71517 11.429C6.86717 10.6944 6.39997 9.74733 6.39997 8.76486ZM15.2001 8.76485C15.2001 10.2423 14.5305 11.6357 13.3153 12.689C13.1649 12.8191 12.9825 12.8825 12.8009 12.8825C12.5729 12.8825 12.3465 12.7829 12.1881 12.5893C11.9033 12.2418 11.9473 11.7222 12.2849 11.429C13.1329 10.6944 13.6001 9.74733 13.6001 8.76485C13.6001 7.78238 13.1329 6.83532 12.2849 6.10073C11.9473 5.80755 11.9033 5.2879 12.1881 4.94037C12.4721 4.59366 12.9769 4.54672 13.3153 4.84072C14.5305 5.89402 15.2001 7.28744 15.2001 8.76485ZM10.0004 9.5882C9.55876 9.5882 9.20036 9.21925 9.20036 8.76466C9.20036 8.31007 9.55876 7.94113 10.0004 7.94113C10.442 7.94113 10.8004 8.31007 10.8004 8.76466C10.8004 9.21925 10.442 9.5882 10.0004 9.5882ZM10.0003 6.29411C8.67706 6.29411 7.60026 7.40258 7.60026 8.7647C7.60026 9.84682 8.28426 10.7593 9.22826 11.092C9.21946 11.1406 9.20026 11.1842 9.20026 11.2353V16.1765C9.20026 16.6319 9.55786 17 10.0003 17C10.4427 17 10.8003 16.6319 10.8003 16.1765V11.2353C10.8003 11.1842 10.7811 11.1406 10.7723 11.092C11.7163 10.7593 12.4003 9.84682 12.4003 8.7647C12.4003 7.40258 11.3235 6.29411 10.0003 6.29411Z" fill="#48464D"/>
</svg>
