<svg width="20" height="20" viewBox="0 0 20 20" fill="none" xmlns="http://www.w3.org/2000/svg">
<path fill-rule="evenodd" clip-rule="evenodd" d="M13.8936 16.9998C13.7823 16.9998 13.671 16.9724 13.5695 16.9163L10 14.9487L6.43054 16.9163C6.19393 17.0463 5.90831 17.0234 5.6948 16.8579C5.47919 16.6925 5.37209 16.4126 5.41689 16.1356L6.09732 11.9789L3.21319 9.03566C3.02068 8.83994 2.95208 8.54599 3.03398 8.27788C3.11519 8.00978 3.335 7.81479 3.59891 7.77417L7.58979 7.16263L9.37277 3.37668C9.60938 2.87444 10.3906 2.87444 10.6272 3.37668L12.4102 7.16263L16.4011 7.77417C16.665 7.81479 16.8848 8.00978 16.966 8.27788C17.0479 8.54599 16.9793 8.83994 16.7868 9.03566L13.9027 11.9789L14.5831 16.1356C14.6279 16.4126 14.5208 16.6925 14.3052 16.8579C14.1841 16.9525 14.0392 16.9998 13.8936 16.9998Z" fill="#48464D"/>
</svg>
