<svg width="20" height="20" viewBox="0 0 20 20" fill="none" xmlns="http://www.w3.org/2000/svg">
<path d="M6.50853 8.46979C6.50853 8.66328 6.52854 8.82342 6.56858 8.94353C6.60861 9.06363 6.66199 9.19043 6.74206 9.32386C6.76876 9.3639 6.7821 9.41063 6.7821 9.44397C6.7821 9.49733 6.74874 9.55075 6.68201 9.60411L6.34838 9.831C6.30167 9.86434 6.25496 9.87767 6.20826 9.87767C6.15487 9.87767 6.1015 9.85102 6.04812 9.80429C5.97471 9.72422 5.90799 9.63746 5.85461 9.55739C5.80123 9.46399 5.74785 9.3639 5.6878 9.24379C5.27409 9.73085 4.75363 9.97776 4.12641 9.97776C3.67935 9.97776 3.3257 9.85096 3.06547 9.59742C2.80524 9.34388 2.67178 9.00358 2.67178 8.57652C2.67178 8.1228 2.83193 7.75579 3.15888 7.48222C3.48584 7.20864 3.91288 7.06852 4.46004 7.06852C4.6402 7.06852 4.82703 7.08186 5.02721 7.10856C5.22071 7.13525 5.42757 7.17528 5.64109 7.22866V6.84165C5.64109 6.43463 5.55434 6.15438 5.3942 5.98756C5.22071 5.82074 4.93379 5.74067 4.52677 5.74067C4.33993 5.74067 4.14643 5.76069 3.95292 5.8074C3.75942 5.85411 3.56591 5.91416 3.37908 5.98756C3.29233 6.0276 3.23228 6.04761 3.19225 6.05429C3.15221 6.06763 3.12552 6.06763 3.10551 6.06763C3.0321 6.06763 2.99207 6.01425 2.99207 5.90081V5.64058C2.99207 5.55384 3.00542 5.49379 3.0321 5.45375C3.0588 5.41372 3.10551 5.38035 3.1789 5.34032C3.36574 5.2469 3.58593 5.16683 3.84616 5.1001C4.10639 5.03338 4.38664 5.00002 4.67356 5.00002C5.30746 5.00002 5.76787 5.14681 6.06813 5.43374C6.36173 5.72065 6.50853 6.15438 6.50853 6.74156V8.4631H6.52187L6.50853 8.46979ZM4.34661 9.27714C4.52009 9.27714 4.70025 9.24379 4.89376 9.18374C5.08726 9.11699 5.25408 9.00358 5.40087 8.84344C5.48762 8.74335 5.54767 8.62993 5.58103 8.50314C5.6144 8.37634 5.63441 8.22289 5.63441 8.04273V7.81584C5.48095 7.7758 5.31413 7.74915 5.14732 7.72244C4.97383 7.70243 4.81368 7.6891 4.64687 7.6891C4.29322 7.6891 4.03299 7.75579 3.85283 7.9026C3.67935 8.04942 3.5926 8.2496 3.5926 8.51646C3.5926 8.76337 3.65933 8.95022 3.78611 9.08365C3.91288 9.21708 4.09972 9.27714 4.34661 9.27714ZM8.61706 9.85096C8.52366 9.85096 8.45692 9.83763 8.41688 9.7976C8.37685 9.76426 8.33681 9.69088 8.30347 9.59079L7.05567 5.48044C7.02231 5.37368 7.00897 5.30696 7.00897 5.26692C7.00897 5.18018 7.04901 5.13347 7.13575 5.13347H7.65621C7.7563 5.13347 7.82968 5.14681 7.86308 5.18685C7.90311 5.22021 7.93646 5.29361 7.9698 5.3937L8.86397 8.91682L9.69133 5.3937C9.71804 5.28694 9.75138 5.22021 9.79142 5.18685C9.83145 5.15349 9.91152 5.13347 10.005 5.13347H10.432C10.5321 5.13347 10.6055 5.14681 10.6455 5.18685C10.6856 5.22021 10.7256 5.29361 10.7456 5.3937L11.5864 8.95685L12.5072 5.3937C12.5405 5.28694 12.5739 5.22021 12.6139 5.18685C12.654 5.15349 12.7274 5.13347 12.8208 5.13347H13.3145C13.4013 5.13347 13.448 5.17351 13.448 5.26692C13.448 5.29361 13.448 5.3203 13.4347 5.35367C13.4347 5.38703 13.4213 5.42706 13.3946 5.48712L12.1135 9.59742C12.0801 9.7042 12.0468 9.77095 12.0001 9.80429C11.96 9.83764 11.8866 9.85765 11.7999 9.85765H11.3395C11.2394 9.85765 11.166 9.84433 11.126 9.80429C11.0859 9.76426 11.0459 9.69751 11.0259 9.59079L10.1985 6.16105L9.37774 9.59079C9.35103 9.69751 9.31768 9.76426 9.27765 9.80429C9.23761 9.84433 9.15754 9.85765 9.06414 9.85765H8.60373L8.61706 9.85096ZM15.4564 9.99778C15.1829 9.99778 14.9026 9.96443 14.6357 9.90438C14.3688 9.83764 14.162 9.77095 14.0219 9.69088C13.9351 9.64415 13.875 9.59079 13.855 9.54406C13.835 9.49733 13.8217 9.44397 13.8217 9.39724V9.12369C13.8217 9.01027 13.8617 8.95685 13.9418 8.95685C13.9751 8.95685 14.0085 8.95685 14.0352 8.97024C14.0619 8.98356 14.1153 9.00358 14.1687 9.0236C14.3488 9.10367 14.549 9.17041 14.7558 9.21045C14.9694 9.25048 15.1762 9.27714 15.3898 9.27714C15.7234 9.27714 15.9836 9.21708 16.1638 9.10367C16.3439 8.98356 16.4373 8.81673 16.4373 8.59653C16.4373 8.44977 16.3906 8.32298 16.2906 8.22289C16.1905 8.1228 16.0169 8.0294 15.7501 7.94933L14.976 7.70912C14.589 7.58901 14.3021 7.40882 14.1219 7.16861C13.9485 6.93507 13.855 6.67484 13.855 6.39459C13.855 6.16772 13.9018 5.97422 14.0018 5.80073C14.0952 5.62724 14.2287 5.48044 14.3822 5.36701C14.5423 5.2469 14.7225 5.15349 14.936 5.09344C15.1495 5.02671 15.3697 5.00002 15.6033 5.00002C15.7234 5.00002 15.8435 5.00002 15.9569 5.02003C16.077 5.03338 16.1905 5.06007 16.3039 5.08009C16.4107 5.10678 16.5108 5.13347 16.6041 5.16683C16.6975 5.20019 16.7776 5.23356 16.831 5.26025C16.9044 5.30028 16.9578 5.34699 16.9912 5.3937C17.0245 5.43374 17.0378 5.49379 17.0378 5.56719V5.81407C17.0378 5.92751 16.9978 5.98756 16.9177 5.98756C16.8777 5.98756 16.8043 5.96754 16.7176 5.92083C16.4173 5.78071 16.077 5.71399 15.6967 5.71399C15.3964 5.71399 15.1562 5.76069 14.9894 5.86078C14.8226 5.96087 14.7425 6.11434 14.7425 6.33454C14.7425 6.48133 14.7959 6.60811 14.9026 6.71487C15.0094 6.81496 15.2029 6.91505 15.4898 7.00847L16.2438 7.24868C16.6242 7.36879 16.9044 7.54228 17.0712 7.76248C17.238 7.98267 17.3181 8.22958 17.3181 8.50983C17.3181 8.73666 17.2714 8.94353 17.178 9.12369C17.0846 9.30385 16.9511 9.46399 16.791 9.59079C16.6242 9.72422 16.4307 9.81762 16.1971 9.89105C15.9569 9.96443 15.71 10.0045 15.4364 10.0045L15.4564 9.99778Z" fill="#48464D"/>
<path d="M16.464 12.5867C14.7158 13.8812 12.1735 14.5685 9.98489 14.5685C6.9222 14.5685 4.15974 13.4341 2.07122 11.5525C1.90441 11.4057 2.05788 11.1988 2.25138 11.319C4.50672 12.6267 7.28919 13.4208 10.1651 13.4208C12.1068 13.4208 14.242 13.0138 16.2038 12.1864C16.4974 12.0529 16.7443 12.3799 16.4573 12.5934L16.464 12.5867Z" fill="#48464D"/>
<path d="M17.1913 11.7527C16.9644 11.4657 15.71 11.6125 15.1428 11.6859C14.9693 11.7059 14.9493 11.5592 15.1028 11.4457C16.1037 10.7451 17.7451 10.9452 17.9386 11.1788C18.1321 11.419 17.8853 13.0605 16.9511 13.8478C16.8043 13.9679 16.6708 13.9079 16.7309 13.7477C16.9444 13.2206 17.4182 12.0329 17.1913 11.7527Z" fill="#48464D"/>
</svg>
