<svg width="20" height="20" viewBox="0 0 20 20" fill="none" xmlns="http://www.w3.org/2000/svg">
<path d="M9.48205 8.06809H7.13702V9.11809H9.48205V8.06809Z" fill="#8B7BFF"/>
<path d="M9.48205 9.97208H7.13702V11.0221H9.48205V9.97208Z" fill="#48464D"/>
<path d="M12.863 8.06809H10.721V9.11809H12.863V8.06809Z" fill="#48464D"/>
<path d="M12.863 9.97208H10.721V11.0221H12.863V9.97208Z" fill="#8B7BFF"/>
<path d="M14.2701 5.45001V3.00002H5.73002V5.45001H4.71503V17H15.285V5.45001H14.2701ZM7.13702 4.40001H12.87V5.45001H7.13003V4.40001H7.13702ZM11.456 15.6H10.707V13.64H11.456V15.6ZM9.30703 15.6H8.55805V13.64H9.30703V15.6ZM13.892 15.6H12.856V12.24H7.15103V15.6H6.11503V6.85001H13.885V15.6H13.892Z" fill="#48464D"/>
</svg>
