<svg width="20" height="20" viewBox="0 0 20 20" fill="none" xmlns="http://www.w3.org/2000/svg">
<path d="M10.0336 9.26521C10.231 9.26521 10.3989 9.19802 10.5333 9.06365C10.6677 8.92928 10.7349 8.76131 10.7349 8.56395C10.7349 8.36659 10.6677 8.19862 10.5333 8.06425C10.3989 7.92988 10.231 7.86269 10.0336 7.86269C9.83624 7.86269 9.66827 7.92988 9.5339 8.06425C9.39952 8.19862 9.33234 8.36659 9.33234 8.56395C9.33234 8.76131 9.39952 8.92928 9.5339 9.06365C9.66827 9.19802 9.83624 9.26521 10.0336 9.26521Z" fill="#8B7BFF"/>
<path d="M12.952 9.26521C13.1494 9.26521 13.3173 9.19802 13.4517 9.06365C13.5861 8.92928 13.6533 8.76131 13.6533 8.56395C13.6533 8.36659 13.5861 8.19862 13.4517 8.06425C13.3173 7.92988 13.1494 7.86269 12.952 7.86269C12.7546 7.86269 12.5867 7.92988 12.4523 8.06425C12.3179 8.19862 12.2507 8.36659 12.2507 8.56395C12.2507 8.76131 12.3179 8.92928 12.4523 9.06365C12.5867 9.19802 12.7546 9.26521 12.952 9.26521Z" fill="#8B7BFF"/>
<path d="M15.8326 3H4.16737C3.85243 3 3.57948 3.11758 3.34853 3.34853C3.11758 3.57948 3 3.85243 3 4.16736V17L5.80084 14.1992H15.8326C16.1476 14.1992 16.4205 14.0816 16.6515 13.8506C16.8824 13.6197 17 13.3467 17 13.0318V4.16736C17 3.85243 16.8824 3.57948 16.6515 3.34853C16.4205 3.11758 16.1476 3 15.8326 3ZM15.8326 13.0318H5.30114L4.17157 14.2286V4.16736H15.8368V13.0318H15.8326Z" fill="#48464D"/>
<path d="M7.03539 9.26521C7.23275 9.26521 7.40071 9.19802 7.53509 9.06365C7.66946 8.92928 7.73665 8.76131 7.73665 8.56395C7.73665 8.36659 7.66946 8.19862 7.53509 8.06425C7.40071 7.92988 7.23275 7.86269 7.03539 7.86269C6.83802 7.86269 6.67005 7.92988 6.53568 8.06425C6.40131 8.19862 6.33412 8.36659 6.33412 8.56395C6.33412 8.76131 6.40131 8.92928 6.53568 9.06365C6.67005 9.19802 6.83802 9.26521 7.03539 9.26521Z" fill="#8B7BFF"/>
</svg>
