<svg width="20" height="20" viewBox="0 0 20 20" fill="none" xmlns="http://www.w3.org/2000/svg">
<path d="M10.0051 11.7878C10.6535 11.7878 11.199 11.5606 11.6415 11.106C12.084 10.6515 12.3053 10.101 12.3053 9.45451V4.24747C12.3053 3.62626 12.0789 3.09596 11.6312 2.65656C11.1835 2.22222 10.6381 2 10 2C9.36192 2 8.81647 2.21717 8.36878 2.65656C7.9211 3.09091 7.69983 3.62121 7.69983 4.24747V9.45451C7.69983 10.101 7.9211 10.6515 8.36364 11.106C8.80618 11.5606 9.35163 11.7878 10 11.7878H10.0051ZM9.13551 4.25252C9.13551 4.01515 9.21784 3.81313 9.38765 3.65151C9.55746 3.48989 9.76329 3.40909 10.0103 3.40909C10.2573 3.40909 10.4631 3.48989 10.6329 3.65151C10.7976 3.81313 10.8851 4.01515 10.8851 4.25252V9.45956C10.8851 9.71713 10.8027 9.93431 10.6381 10.1161C10.4734 10.2979 10.2676 10.3838 10.0103 10.3838C9.753 10.3838 9.54717 10.2929 9.3825 10.1161C9.21784 9.93431 9.13551 9.71713 9.13551 9.45956V4.25252Z" fill="#8B7BFF"/>
<path d="M13.2367 12.596C12.3413 13.4495 11.2659 13.8737 10 13.8737C8.73413 13.8737 7.65866 13.4495 6.76844 12.596C5.87822 11.7424 5.43053 10.697 5.43053 9.45457H4C4 10.9394 4.50429 12.2273 5.51286 13.3283C6.52144 14.4293 7.78216 15.0606 9.28473 15.2273V18H10.7153V15.2273C12.223 15.0606 13.4786 14.4243 14.4871 13.3283C15.4957 12.2273 16 10.9394 16 9.45457H14.5695C14.5695 10.6919 14.1218 11.7424 13.2316 12.596H13.2367Z" fill="#48464D"/>
</svg>
