<svg width="20" height="20" viewBox="0 0 20 20" fill="none" xmlns="http://www.w3.org/2000/svg">
<path d="M9.82886 18V16.1662H6.4975V14.5165H12.9119C13.6967 14.5165 14.3293 13.9159 14.3293 13.1792V12.2663C14.3293 11.5296 13.6887 10.929 12.9119 10.929H8.06707C6.37738 10.929 5 9.59157 5 7.94194V6.82083C5 5.17118 6.37738 3.83383 8.06707 3.83383H9.82886V2H11.4785V3.83383H14.0651V5.48349H8.06707C7.28229 5.48349 6.64966 6.08409 6.64966 6.82083V7.94194C6.64966 8.67866 7.2903 9.27926 8.06707 9.27926H12.9119C14.6016 9.27926 15.979 10.6166 15.979 12.2663V13.1792C15.979 14.8288 14.6016 16.1662 12.9119 16.1662H11.4785V18H9.82886Z" fill="#48464D"/>
</svg>
