<svg width="20" height="20" viewBox="0 0 20 20" fill="none" xmlns="http://www.w3.org/2000/svg">
<path d="M8.09833 16.8508C7.64917 16.8508 7.2525 16.7342 6.89667 16.5008C6.54083 16.2675 6.26667 15.9467 6.07417 15.5383C5.91667 15.7425 5.72417 15.9 5.485 16.0108C5.24583 16.1217 5.00083 16.18 4.75 16.18C4.25417 16.18 3.84 16.0108 3.50167 15.6667C3.16333 15.3283 3 14.9142 3 14.4242C3 14.0042 3.13417 13.6308 3.40833 13.2925C3.6825 12.9542 4.02667 12.7675 4.44667 12.715C4.3125 12.5225 4.2075 12.3125 4.13167 12.0967C4.05583 11.8808 4.02083 11.6475 4.02083 11.4025C4.02083 11.0117 4.12 10.65 4.31833 10.3058C4.51667 9.96749 4.79667 9.68749 5.15833 9.47166C5.205 9.64666 5.275 9.83333 5.35667 10.0317C5.43833 10.23 5.53167 10.405 5.6425 10.5508C5.50833 10.6558 5.3975 10.7842 5.32167 10.9358C5.24583 11.0875 5.205 11.245 5.205 11.4083C5.205 11.9508 5.42667 12.2892 5.87583 12.4175C6.325 12.5458 6.745 12.645 7.1475 12.7267L7.4275 13.1933C7.3225 13.5025 7.22917 13.7708 7.1475 13.9867C7.06583 14.2025 7.03083 14.4008 7.03083 14.5758C7.03083 14.8675 7.13583 15.1242 7.34583 15.34C7.55583 15.5558 7.8125 15.6667 8.11 15.6667C8.4775 15.6667 8.78666 15.5033 9.03166 15.1708C9.27666 14.8383 9.475 14.4533 9.6325 14.0042C9.79 13.555 9.90666 13.1058 9.98833 12.645C10.07 12.1842 10.1342 11.84 10.1867 11.595L11.3242 11.9042C11.2367 12.3417 11.1317 12.8433 11.0033 13.4092C10.875 13.975 10.7 14.5117 10.4725 15.0192C10.245 15.5325 9.94166 15.9583 9.56833 16.3083C9.195 16.6583 8.71083 16.8333 8.11583 16.8333L8.09833 16.8508ZM4.74417 15.0133C4.9075 15.0133 5.0475 14.955 5.15833 14.8442C5.26917 14.7333 5.3275 14.5933 5.3275 14.43C5.3275 14.2667 5.26917 14.1267 5.15833 14.0158C5.0475 13.905 4.9075 13.8467 4.74417 13.8467C4.58083 13.8467 4.44083 13.905 4.33 14.0158C4.21917 14.1267 4.16083 14.2667 4.16083 14.43C4.16083 14.5933 4.21917 14.7333 4.33 14.8442C4.44083 14.955 4.58083 15.0133 4.74417 15.0133ZM8.88583 12.7092C8.43666 12.3125 8.03416 11.9392 7.66666 11.595C7.29917 11.2508 6.99 10.9125 6.7275 10.5858C6.465 10.2592 6.26083 9.93249 6.12083 9.60583C5.98083 9.27916 5.91083 8.94083 5.91083 8.59083C5.91083 7.96083 6.12667 7.42416 6.55833 6.9925C6.99 6.56084 7.52084 6.345 8.15666 6.345C8.1975 6.345 8.2325 6.345 8.26166 6.35083C8.29083 6.35666 8.32583 6.35666 8.36666 6.35666C8.32583 6.2575 8.29666 6.16417 8.27916 6.065C8.26166 5.96583 8.25 5.86666 8.25 5.75583C8.25 5.27166 8.41916 4.8575 8.76333 4.51333C9.1075 4.16916 9.51583 4 10.0058 4C10.4958 4 10.9042 4.16916 11.2483 4.51333C11.5925 4.8575 11.7617 5.26583 11.7617 5.75583C11.7617 5.86083 11.75 5.96 11.7325 6.05333C11.715 6.14666 11.6858 6.24 11.645 6.33917H11.8492C12.4325 6.33917 12.9283 6.52584 13.3367 6.89917C13.745 7.2725 13.99 7.73916 14.0658 8.29333C13.8908 8.26416 13.6925 8.24666 13.4767 8.24666C13.2608 8.24666 13.0567 8.25833 12.87 8.27583C12.8 8.05416 12.6775 7.8675 12.4967 7.72166C12.3158 7.57583 12.1 7.5 11.8492 7.5C11.5108 7.5 11.2425 7.59916 11.0558 7.7975C10.8692 7.99583 10.6067 8.28749 10.2742 8.66666H9.73166C9.39333 8.26999 9.125 7.9725 8.93833 7.78583C8.75166 7.59916 8.495 7.5 8.17416 7.5C7.85333 7.5 7.6025 7.605 7.39833 7.80916C7.19417 8.01333 7.08917 8.26999 7.08917 8.58499C7.08917 8.80666 7.15334 9.03999 7.28167 9.27916C7.41 9.51833 7.585 9.76916 7.8125 10.0375C8.04 10.3058 8.32 10.5917 8.64666 10.8892C8.97333 11.1867 9.335 11.5192 9.73166 11.8692L8.8975 12.7033L8.88583 12.7092ZM9.99416 6.35083C10.1575 6.35083 10.2975 6.2925 10.4083 6.18166C10.5192 6.07083 10.5775 5.93083 10.5775 5.7675C10.5775 5.60416 10.5192 5.46416 10.4083 5.35333C10.2975 5.2425 10.1575 5.18416 9.99416 5.18416C9.83083 5.18416 9.69083 5.2425 9.58 5.35333C9.46916 5.46416 9.41083 5.60416 9.41083 5.7675C9.41083 5.93083 9.46916 6.07083 9.58 6.18166C9.69083 6.2925 9.83083 6.35083 9.99416 6.35083ZM11.8783 16.8508C11.6625 16.8508 11.4525 16.8217 11.2425 16.7633C11.0325 16.705 10.8342 16.6117 10.6358 16.4833C10.7408 16.3492 10.8517 16.1858 10.9567 15.9992C11.0617 15.8125 11.1608 15.6433 11.2483 15.4858C11.3533 15.5558 11.4642 15.6025 11.5692 15.6317C11.6742 15.6608 11.785 15.6783 11.89 15.6783C12.1992 15.6783 12.4617 15.5675 12.6717 15.3517C12.8817 15.1358 12.9867 14.8733 12.9867 14.57C12.9867 14.3833 12.9458 14.185 12.87 13.9692C12.7942 13.7533 12.7008 13.4908 12.59 13.1817L12.87 12.715C13.2783 12.6392 13.7042 12.5342 14.1475 12.4058C14.5908 12.2775 14.8125 11.945 14.8125 11.3967C14.8125 11.0058 14.6667 10.7258 14.3808 10.5508C14.095 10.3758 13.78 10.2883 13.4417 10.2883C13.0333 10.2883 12.555 10.3642 12.0125 10.5217C11.47 10.6792 10.8283 10.8775 10.0992 11.1225L9.79 9.98499C10.5483 9.73999 11.225 9.53583 11.82 9.37249C12.415 9.20916 12.9575 9.12166 13.4533 9.12166C14.1242 9.12166 14.7133 9.31999 15.2208 9.72249C15.7283 10.125 15.9792 10.6792 15.9792 11.4025C15.9792 11.6475 15.9442 11.875 15.8683 12.0967C15.7925 12.3183 15.6933 12.5225 15.5533 12.715C15.9733 12.7617 16.3175 12.9542 16.5917 13.2925C16.8658 13.6308 17 14.0042 17 14.4242C17 14.9083 16.8308 15.3225 16.4983 15.6667C16.16 16.005 15.7458 16.18 15.25 16.18C14.9992 16.18 14.7542 16.1217 14.515 16.0108C14.2758 15.9 14.0775 15.7425 13.9258 15.5383C13.7333 15.9467 13.4592 16.2675 13.1033 16.5008C12.7475 16.7342 12.345 16.8508 11.8842 16.8508H11.8783ZM15.2617 15.0133C15.425 15.0133 15.565 14.955 15.67 14.8442C15.775 14.7333 15.8333 14.5933 15.8333 14.43C15.8333 14.2667 15.775 14.1208 15.6642 14.0042C15.5533 13.8875 15.4133 13.8292 15.25 13.8292C15.0867 13.8292 14.9467 13.8875 14.8358 13.9983C14.725 14.1092 14.6667 14.2492 14.6667 14.4125C14.6667 14.5758 14.725 14.7217 14.8417 14.8383C14.9583 14.955 15.0983 15.0133 15.2675 15.0133H15.2617Z" fill="#48464D"/>
</svg>
