<svg width="20" height="20" viewBox="0 0 20 20" fill="none" xmlns="http://www.w3.org/2000/svg">
<path d="M12.9154 13.8089C13.9935 13.8089 14.91 13.4362 15.665 12.6949C16.4201 11.9494 16.7954 11.0497 16.7954 9.99573C16.7954 8.94174 16.4201 8.042 15.665 7.30079C14.91 6.55955 13.9935 6.19109 12.9154 6.19109C12.5619 6.19109 12.2128 6.23822 11.8767 6.32819C11.5406 6.41816 11.2264 6.55098 10.9384 6.72236C11.3312 7.16797 11.6367 7.66497 11.8549 8.22195C12.0731 8.77893 12.1866 9.37019 12.1866 10C12.1866 10.6298 12.0775 11.2254 11.8549 11.7781C11.6367 12.3351 11.3268 12.8321 10.9384 13.2776C11.2264 13.449 11.5406 13.5776 11.8767 13.6718C12.2128 13.7618 12.5576 13.8089 12.9154 13.8089ZM10.0044 12.5107C10.3055 12.1808 10.5456 11.7995 10.7158 11.3668C10.886 10.934 10.9733 10.4756 10.9733 9.99573C10.9733 9.51586 10.886 9.05742 10.7158 8.62898C10.5456 8.20053 10.3055 7.81921 10.0044 7.48931C9.70322 7.81921 9.46318 8.20053 9.29296 8.63326C9.12275 9.06599 9.03546 9.52443 9.03546 10.0043C9.03546 10.4842 9.12275 10.9426 9.29296 11.371C9.46318 11.7995 9.70322 12.1808 10.0044 12.5107ZM7.09329 13.8089C7.44681 13.8089 7.79596 13.7618 8.13202 13.6718C8.46809 13.5818 8.78232 13.449 9.07038 13.2776C8.67758 12.8321 8.37207 12.3351 8.15385 11.7781C7.93562 11.2211 7.82215 10.6298 7.82215 10C7.82215 9.37019 7.93126 8.77465 8.15385 8.22195C8.37207 7.66497 8.68194 7.16797 9.07038 6.72236C8.78232 6.55098 8.46809 6.42245 8.13202 6.32819C7.79596 6.23822 7.45117 6.19109 7.09329 6.19109C6.01964 6.19109 5.10311 6.55955 4.34806 7.30079C3.59302 8.042 3.21331 8.93746 3.21331 9.99573C3.21331 11.054 3.59302 11.9494 4.34806 12.6949C5.10311 13.4404 6.01964 13.8089 7.09329 13.8089ZM7.09329 15C5.67485 15 4.47027 14.5159 3.48391 13.5433C2.49754 12.575 2 11.3925 2 10C2 8.60755 2.49318 7.42504 3.48391 6.45672C4.47027 5.48843 5.67485 5 7.09329 5C7.63884 5 8.15821 5.07712 8.64703 5.23136C9.13584 5.3856 9.58974 5.6084 10 5.89117C10.4103 5.60411 10.8642 5.3856 11.353 5.23136C11.8418 5.07712 12.3612 5 12.9067 5C14.3252 5 15.5297 5.48415 16.5161 6.45672C17.5025 7.42932 18 8.60755 18 10C18 11.3925 17.5068 12.575 16.5161 13.5433C15.5297 14.5116 14.3252 15 12.9067 15C12.3612 15 11.8418 14.9229 11.353 14.7686C10.8642 14.6144 10.4103 14.3916 10 14.1088C9.58974 14.3959 9.13584 14.6144 8.64703 14.7686C8.15821 14.9229 7.63884 15 7.09329 15Z" fill="#48464D"/>
</svg>
