<svg width="20" height="20" viewBox="0 0 20 20" fill="none" xmlns="http://www.w3.org/2000/svg">
<path d="M13.1938 17C12.7875 17 12.4022 16.867 12.073 16.615L10.0065 14.998L7.93998 16.615C7.61779 16.867 7.22549 17 6.8192 17C6.23778 17 5.69138 16.72 5.34113 16.244C4.99788 15.775 4.89981 15.166 5.08194 14.613L5.95057 11.883L3.72997 10.21C3.09952 9.734 2.84734 8.915 3.09251 8.17298C3.33769 7.424 4.0452 6.927 4.83677 6.927L7.46366 6.955L8.2552 4.302C8.48637 3.525 9.1869 3 9.99946 3C10.8121 3 11.5126 3.525 11.7437 4.302L12.5353 6.955L15.1832 6.927C15.9678 6.927 16.6613 7.431 16.9065 8.17298C17.1516 8.92202 16.9065 9.74102 16.269 10.21L14.0484 11.883L14.917 14.613C15.0921 15.166 14.9941 15.775 14.6508 16.244C14.3076 16.713 13.7542 17 13.1798 17H13.1938ZM10.0065 13.283C10.0485 13.283 10.0835 13.297 10.1116 13.318L12.8575 15.467C12.9416 15.53 13.0397 15.565 13.1448 15.565C13.2919 15.565 13.439 15.495 13.523 15.369C13.6141 15.25 13.6351 15.096 13.5861 14.949L12.4863 11.477C12.4653 11.407 12.4863 11.33 12.5493 11.288L15.3934 9.146C15.5545 9.02 15.6175 8.81702 15.5545 8.621C15.4914 8.42498 15.3163 8.29898 15.1132 8.29898L11.6457 8.33402C11.5686 8.33402 11.4986 8.285 11.4775 8.20802L10.4478 4.757C10.3848 4.554 10.2096 4.421 9.99946 4.421C9.78931 4.421 9.61422 4.554 9.55118 4.757L8.52144 8.20802C8.50042 8.27798 8.43035 8.33402 8.35332 8.33402L4.89281 8.29898C4.68266 8.29898 4.50753 8.42498 4.44449 8.621C4.38144 8.81702 4.44449 9.02 4.6056 9.146L7.44965 11.288C7.50569 11.33 7.53371 11.407 7.5127 11.477L6.4129 14.949C6.36387 15.096 6.39189 15.243 6.47595 15.369C6.56702 15.488 6.70712 15.565 6.85422 15.565C6.9593 15.565 7.05737 15.53 7.14143 15.467L9.88742 13.318C9.88742 13.318 9.95743 13.283 9.9925 13.283H10.0065Z" fill="#48464D"/>
</svg>
