<svg width="20" height="20" viewBox="0 0 20 20" fill="none" xmlns="http://www.w3.org/2000/svg">
<path d="M5.2 17C4.32 17 3.56667 16.6954 2.94 16.0861C2.31334 15.4769 2 14.7445 2 13.8889C2 13.0333 2.31334 12.3009 2.94 11.6917C3.56667 11.0824 4.32 10.7778 5.2 10.7778C6.08 10.7778 6.83334 11.0824 7.46002 11.6917C8.0867 12.3009 8.4 13.0333 8.4 13.8889C8.4 14.7445 8.0867 15.4769 7.46002 16.0861C6.83334 16.6954 6.08 17 5.2 17ZM14.8 17C13.92 17 13.1667 16.6954 12.54 16.0861C11.9133 15.4769 11.6 14.7445 11.6 13.8889C11.6 13.0333 11.9133 12.3009 12.54 11.6917C13.1667 11.0824 13.92 10.7778 14.8 10.7778C15.68 10.7778 16.4333 11.0824 17.06 11.6917C17.6867 12.3009 18 13.0333 18 13.8889C18 14.7445 17.6867 15.4769 17.06 16.0861C16.4333 16.6954 15.68 17 14.8 17ZM5.2 15.4445C5.64 15.4445 6.01667 15.2921 6.33 14.9875C6.64333 14.6829 6.8 14.3167 6.8 13.8889C6.8 13.4611 6.64333 13.0949 6.33 12.7903C6.01667 12.4857 5.64 12.3333 5.2 12.3333C4.76 12.3333 4.38334 12.4857 4.07 12.7903C3.75667 13.0949 3.6 13.4611 3.6 13.8889C3.6 14.3167 3.75667 14.6829 4.07 14.9875C4.38334 15.2921 4.76 15.4445 5.2 15.4445ZM14.8 15.4445C15.24 15.4445 15.6167 15.2921 15.93 14.9875C16.2433 14.6829 16.4 14.3167 16.4 13.8889C16.4 13.4611 16.2433 13.0949 15.93 12.7903C15.6167 12.4857 15.24 12.3333 14.8 12.3333C14.36 12.3333 13.9834 12.4857 13.67 12.7903C13.3567 13.0949 13.2 13.4611 13.2 13.8889C13.2 14.3167 13.3567 14.6829 13.67 14.9875C13.9834 15.2921 14.36 15.4445 14.8 15.4445ZM9.99998 9.2222C9.12 9.2222 8.36667 8.9176 7.74 8.30833C7.11334 7.69907 6.8 6.96667 6.8 6.11111C6.8 5.25555 7.11334 4.52315 7.74 3.91389C8.36667 3.30463 9.12 3 9.99998 3C10.88 3 11.6333 3.30463 12.26 3.91389C12.8867 4.52315 13.2 5.25555 13.2 6.11111C13.2 6.96667 12.8867 7.69907 12.26 8.30833C11.6333 8.9176 10.88 9.2222 9.99998 9.2222ZM9.99998 7.66667C10.44 7.66667 10.8167 7.51433 11.13 7.20972C11.4433 6.90509 11.6 6.53889 11.6 6.11111C11.6 5.68333 11.4433 5.31713 11.13 5.0125C10.8167 4.70787 10.44 4.55555 9.99998 4.55555C9.56002 4.55555 9.18336 4.70787 8.86999 5.0125C8.55668 5.31713 8.4 5.68333 8.4 6.11111C8.4 6.53889 8.55668 6.90509 8.86999 7.20972C9.18336 7.51433 9.56002 7.66667 9.99998 7.66667Z" fill="#48464D"/>
</svg>
