<svg width="20" height="20" viewBox="0 0 20 20" fill="none" xmlns="http://www.w3.org/2000/svg">
<path fill-rule="evenodd" clip-rule="evenodd" d="M16 15.1333H11.0001C10.4491 15.1333 10.0001 14.7143 10.0001 14.2V5.8756L13.375 8.3956C13.56 8.5328 13.78 8.6 14 8.6C14.292 8.6 14.583 8.48053 14.781 8.25C15.126 7.8468 15.056 7.25973 14.625 6.93773L9.62508 3.2044C9.25908 2.93187 8.74109 2.93187 8.37509 3.2044L3.37515 6.93773C2.94415 7.25973 2.87415 7.8468 3.21915 8.25C3.56314 8.65227 4.19414 8.71667 4.62513 8.3956L8.0001 5.8756V14.2C8.0001 15.7437 9.34608 17 11.0001 17H16C16.552 17 17 16.5819 17 16.0667C17 15.5515 16.552 15.1333 16 15.1333Z" fill="#48464D"/>
</svg>
