<svg width="20" height="20" viewBox="0 0 20 20" fill="none" xmlns="http://www.w3.org/2000/svg">
<path fill-rule="evenodd" clip-rule="evenodd" d="M16 3H11.0001C9.34608 3 8.0001 4.25627 8.0001 5.8V14.1244L4.62513 11.6044C4.19414 11.2833 3.56314 11.3477 3.21915 11.75C2.87415 12.1532 2.94415 12.7403 3.37515 13.0623L8.37509 16.7956C8.55809 16.9319 8.77909 17 9.00009 17C9.22108 17 9.44208 16.9319 9.62508 16.7956L14.625 13.0623C15.056 12.7403 15.126 12.1532 14.781 11.75C14.437 11.3477 13.807 11.2824 13.375 11.6044L10.0001 14.1244V5.8C10.0001 5.28573 10.4491 4.86667 11.0001 4.86667H16C16.552 4.86667 17 4.44853 17 3.93333C17 3.41813 16.552 3 16 3Z" fill="#48464D"/>
</svg>
