<svg width="20" height="20" viewBox="0 0 20 20" fill="none" xmlns="http://www.w3.org/2000/svg">
<path fill-rule="evenodd" clip-rule="evenodd" d="M10.3481 9.23944L8.83899 7.76791L6.87525 5.85227L5.63814 4.64673L4.18329 3.22808C3.87142 2.92397 3.36653 2.92397 3.05466 3.22808C2.74359 3.53141 2.74359 4.02374 3.05466 4.32784L4.15218 5.39805L5.3175 6.53359L7.09938 8.27112L8.3325 9.47355L10.5172 11.6039L12.7449 13.7762L15.8166 16.7721C15.9729 16.9238 16.1771 17 16.3805 17C16.5847 17 16.7889 16.9238 16.9452 16.7721C17.2563 16.468 17.2563 15.9757 16.9452 15.6724L10.3481 9.23944ZM10.0002 14.6663C9.55914 14.6663 9.2026 15.0147 9.2026 15.4441C9.2026 15.8734 9.55914 16.2218 10.0002 16.2218C10.4413 16.2218 10.7978 15.8734 10.7978 15.4441C10.7978 15.0147 10.4413 14.6663 10.0002 14.6663ZM10 3.77773C12.9097 3.77773 15.6639 4.86271 17.7568 6.83357C18.0735 7.13146 18.0823 7.62456 17.7768 7.93333C17.6205 8.09122 17.4115 8.17055 17.2033 8.17055C17.0039 8.17055 16.8037 8.09822 16.649 7.952C14.8543 6.26347 12.4934 5.33326 10 5.33326C9.2319 5.33326 8.47815 5.43204 7.74753 5.60314L6.45937 4.34705C7.5888 3.97994 8.77885 3.77773 10 3.77773ZM3.47891 5.84083C3.04899 6.14416 2.63184 6.46849 2.2434 6.83326C1.92674 7.13192 1.91797 7.62425 2.22346 7.93302C2.52974 8.24258 3.03623 8.25113 3.35129 7.95247C3.74691 7.57992 4.17443 7.25092 4.6211 6.95381L3.47891 5.84083ZM14.5906 11.1218C14.3816 11.1218 14.1727 11.0425 14.0163 10.8846C13.3846 10.246 12.599 9.77547 11.7439 9.50092L9.87031 7.67317C9.89031 7.67281 9.9103 7.67127 9.93038 7.66973L9.93039 7.66973C9.95356 7.66795 9.97683 7.66617 10.0003 7.66617C11.9369 7.66617 13.8193 8.44549 15.1641 9.80347C15.4696 10.113 15.4616 10.6054 15.1442 10.9032C14.9902 11.0495 14.79 11.1218 14.5906 11.1218ZM6.35622 8.64662C5.80267 8.96395 5.28661 9.34817 4.83596 9.80394C4.53047 10.1127 4.53924 10.6058 4.8559 10.9037C5.17175 11.2024 5.67745 11.1938 5.98373 10.8843C6.43199 10.4316 6.96002 10.0684 7.53191 9.79305L6.35622 8.64662ZM7.20992 13.7465C6.90443 13.4377 6.9132 12.9454 7.22986 12.6467C7.82967 12.0813 8.58501 11.732 9.39699 11.6115L11.4046 13.5699C10.4937 12.936 9.15531 12.9959 8.33775 13.7651C8.02189 14.0646 7.5162 14.056 7.20992 13.7465Z" fill="#48464D"/>
</svg>
