<svg width="20" height="20" viewBox="0 0 20 20" fill="none" xmlns="http://www.w3.org/2000/svg">
<path fill-rule="evenodd" clip-rule="evenodd" d="M12.1001 9.29997H7.89996C7.51495 9.29997 7.19994 9.61498 7.19994 9.99999C7.19994 10.385 7.51495 10.7 7.89996 10.7H12.1001C12.4851 10.7 12.8001 10.385 12.8001 9.99999C12.8001 9.61498 12.4851 9.29997 12.1001 9.29997ZM9.99987 15.6001C6.9121 15.6001 4.39974 13.0878 4.39974 10C4.39974 6.91224 6.9121 4.39988 9.99987 4.39988C13.0876 4.39988 15.6 6.91224 15.6 10C15.6 13.0878 13.0876 15.6001 9.99987 15.6001ZM9.99984 2.99985C6.13995 2.99985 2.99968 6.14012 2.99968 10C2.99968 13.8599 6.13995 17.0002 9.99984 17.0002C13.8597 17.0002 17 13.8599 17 10C17 6.14012 13.8597 2.99985 9.99984 2.99985Z" fill="#48464D"/>
</svg>
