<svg width="20" height="20" viewBox="0 0 20 20" fill="none" xmlns="http://www.w3.org/2000/svg">
<path fill-rule="evenodd" clip-rule="evenodd" d="M11.7496 10.8H8.24961C7.76574 10.8 7.37461 11.1584 7.37461 11.6C7.37461 12.0416 7.76574 12.4 8.24961 12.4H11.7496C12.2335 12.4 12.6246 12.0416 12.6246 11.6C12.6246 11.1584 12.2335 10.8 11.7496 10.8ZM14.7631 16.4H5.23527C4.96752 16.4 4.74965 16.2208 4.74965 16V4C4.74965 3.7792 4.96752 3.6 5.23527 3.6H9.99965V6.12C9.99965 7.3776 11.0645 8.4 12.3744 8.4H15.2496V16C15.2496 16.2208 15.0318 16.4 14.7631 16.4ZM11.7502 4.38241L14.1495 6.80001H12.375C12.0302 6.80001 11.7502 6.49521 11.7502 6.12001V4.38241ZM16.7725 7.0624L12.009 2.2624C11.8427 2.0952 11.6083 2 11.3606 2H5.23563C4.00275 2 3 2.8976 3 4V16C3 17.1024 4.00275 18 5.23563 18H14.7635C15.9964 18 17 17.1024 17 16V7.6C17 7.4008 16.9186 7.2096 16.7725 7.0624Z" fill="#48464D"/>
</svg>
