<svg width="20" height="20" viewBox="0 0 20 20" fill="none" xmlns="http://www.w3.org/2000/svg">
<path fill-rule="evenodd" clip-rule="evenodd" d="M14.333 14.6485L7.90366 10.0026L14.333 5.4407V14.6485ZM15.5998 3.23612C14.6212 2.8337 13.4652 2.95268 12.6545 3.53939L5.85451 8.4524C5.78385 8.50372 5.72918 8.56438 5.66651 8.62153V4.1681C5.66651 3.52306 5.06918 3.00167 4.33318 3.00167C3.59718 3.00167 2.99985 3.52306 2.99985 4.1681V15.8324C2.99985 16.4763 3.59718 16.9988 4.33318 16.9988C5.06918 16.9988 5.66651 16.4763 5.66651 15.8324V11.3778C5.72918 11.435 5.78385 11.4956 5.85585 11.5469L12.6545 16.4623C13.1452 16.8157 13.7638 17 14.3918 17C14.8012 17 15.2145 16.9218 15.5998 16.7632C16.4638 16.4075 16.9998 15.6983 16.9998 14.9144V5.08608C16.9998 4.30107 16.4638 3.59188 15.5998 3.23612Z" fill="#48464D"/>
</svg>
