<svg width="20" height="20" viewBox="0 0 20 20" fill="none" xmlns="http://www.w3.org/2000/svg">
<path fill-rule="evenodd" clip-rule="evenodd" d="M5.66666 14.5587V5.35092L12.096 9.99795L5.66666 14.5587ZM15.6668 3.00176C14.9308 3.00176 14.3335 3.52315 14.3335 4.16818V8.62159C14.2708 8.56444 14.2162 8.50495 14.1442 8.45362L7.34549 3.53831C6.53349 2.95277 5.37615 2.83379 4.40015 3.23621C3.53615 3.59313 3.00015 4.30115 3.00015 5.08616V14.9144C3.00015 15.6995 3.53615 16.4075 4.40015 16.7644C4.78549 16.9219 5.19882 17 5.60815 17C6.23615 17 6.85482 16.8169 7.34549 16.4611L14.1455 11.547C14.2162 11.4957 14.2708 11.435 14.3335 11.3779V15.8324C14.3335 16.4775 14.9308 16.9988 15.6668 16.9988C16.4028 16.9988 17.0002 16.4775 17.0002 15.8324V4.16818C17.0002 3.52315 16.4028 3.00176 15.6668 3.00176Z" fill="#48464D"/>
</svg>
