<svg width="20" height="20" viewBox="0 0 20 20" fill="none" xmlns="http://www.w3.org/2000/svg">
<path fill-rule="evenodd" clip-rule="evenodd" d="M16.7956 10.375L13.0623 5.375C12.7403 4.943 12.1523 4.874 11.7509 5.219C11.3477 5.563 11.2824 6.193 11.6044 6.624L14.1253 10H5.8C5.28573 10 4.86667 9.551 4.86667 9V4C4.86667 3.447 4.44853 3 3.93333 3C3.41813 3 3 3.447 3 4V9C3 10.654 4.25627 12 5.8 12H14.1253L11.6044 15.375C11.2824 15.806 11.3477 16.436 11.7509 16.78C11.9227 16.928 12.1289 17 12.3333 17C12.6068 17 12.8784 16.871 13.0623 16.624L16.7956 11.624C17.0681 11.259 17.0681 10.74 16.7956 10.375Z" fill="#48464D"/>
</svg>
