<svg width="20" height="20" viewBox="0 0 20 20" fill="none" xmlns="http://www.w3.org/2000/svg">
<path fill-rule="evenodd" clip-rule="evenodd" d="M14.2 8.00003H5.8756L8.3956 4.62504C8.7176 4.19304 8.65227 3.56404 8.25 3.21904C7.84773 2.87504 7.25973 2.94304 6.93773 3.37504L3.2044 8.37503C2.93187 8.74103 2.93187 9.25902 3.2044 9.62502L6.93773 14.625C7.12253 14.872 7.3932 15 7.66667 15C7.872 15 8.07733 14.928 8.25 14.781C8.65227 14.436 8.7176 13.807 8.3956 13.375L5.8756 10H14.2C14.7143 10 15.1333 10.449 15.1333 11V16C15.1333 16.552 15.5515 17 16.0667 17C16.5819 17 17 16.552 17 16V11C17 9.34602 15.7437 8.00003 14.2 8.00003Z" fill="#48464D"/>
</svg>
